<svg width="20" height="20" viewBox="0 0 20 20" fill="none" xmlns="http://www.w3.org/2000/svg">
<g clip-path="url(#clip0_1_13279)">
<path d="M17.0711 2.93094C15.1823 1.04211 12.6711 0.00195312 10 0.00195312C7.32887 0.00195312 4.8177 1.04211 2.92898 2.93094C1.04016 4.81965 0 7.33082 0 10.002C0 12.6731 1.04016 15.1843 2.92898 17.073C4.8177 18.9618 7.32887 20.002 10 20.002C12.6711 20.002 15.1823 18.9618 17.0711 17.073C18.9598 15.1843 20 12.6731 20 10.002C20 7.33082 18.9598 4.81965 17.0711 2.93094ZM10 19.2052C4.92535 19.2052 0.796797 15.0766 0.796797 10.002C0.796797 4.92727 4.92535 0.79875 10 0.79875C15.0746 0.79875 19.2032 4.9273 19.2032 10.002C19.2032 15.0766 15.0746 19.2052 10 19.2052Z" fill="#343433"/>
<path d="M18.052 11.6472C18.0013 11.6342 17.9485 11.6314 17.8968 11.6389C17.845 11.6463 17.7951 11.6639 17.7502 11.6907C17.7052 11.7174 17.6659 11.7527 17.6346 11.7946C17.6033 11.8366 17.5805 11.8842 17.5676 11.935C17.3454 12.8076 16.9755 13.6294 16.4683 14.3775C16.3448 14.5596 16.3924 14.8073 16.5745 14.9308C16.6404 14.9756 16.7182 14.9995 16.7978 14.9995C16.9254 14.9995 17.0509 14.9382 17.1279 14.8246C17.687 14 18.0947 13.0939 18.3398 12.1316C18.3941 11.9184 18.2653 11.7014 18.052 11.6472ZM18.2072 9.60305C17.9872 9.60305 17.8088 9.78144 17.8088 10.0014C17.8088 10.1153 17.8063 10.2302 17.8015 10.3428C17.7919 10.5627 17.9624 10.7486 18.1823 10.758C18.1881 10.7583 18.194 10.7584 18.1998 10.7584C18.4119 10.7584 18.5882 10.5912 18.5975 10.3772C18.6029 10.2532 18.6056 10.1268 18.6056 10.0014C18.6056 9.78144 18.4272 9.60305 18.2072 9.60305ZM10 6.75445C9.23114 6.75445 8.60559 7.38 8.60559 8.14887V15.0811C8.60559 15.85 9.23114 16.4755 10 16.4755C10.7689 16.4755 11.3944 15.85 11.3944 15.0811V8.14887C11.3944 7.37996 10.7689 6.75445 10 6.75445ZM10.5976 15.0811C10.5976 15.4107 10.3295 15.6787 10 15.6787C9.67047 15.6787 9.40239 15.4107 9.40239 15.0811V8.14887C9.40239 7.81934 9.67047 7.55125 10 7.55125C10.3295 7.55125 10.5976 7.81934 10.5976 8.14887V15.0811ZM10.9857 3.93531C10.7259 3.67602 10.3666 3.52734 10 3.52734C9.6334 3.52734 9.27407 3.67602 9.01383 3.93566C8.75438 4.1952 8.60559 4.55457 8.60559 4.92176C8.60559 5.28832 8.75426 5.64766 9.01418 5.90812C9.27403 6.16746 9.63336 6.31617 10 6.31617C10.3666 6.31617 10.7259 6.16746 10.9864 5.90754C11.2457 5.64769 11.3944 5.28836 11.3944 4.92176C11.3944 4.55457 11.2456 4.19516 10.9857 3.93531ZM10.4229 5.34414C10.3113 5.45547 10.1572 5.51937 10 5.51937C9.84175 5.51887 9.69004 5.45616 9.57762 5.34477C9.46629 5.23312 9.40239 5.07894 9.40239 4.9218C9.40239 4.7643 9.46618 4.61023 9.57696 4.49941C9.6886 4.38809 9.84278 4.32418 10 4.32418C10.1572 4.32418 10.3114 4.38809 10.4226 4.4991C10.5343 4.61146 10.5972 4.76333 10.5976 4.92176C10.5971 5.08003 10.5344 5.23175 10.4229 5.34414Z" fill="#343433"/>
</g>
<defs>
<clipPath id="clip0_1_13279">
<rect width="20" height="20" fill="white" transform="translate(0 0.00195312)"/>
</clipPath>
</defs>
</svg>
