<svg width="32" height="32" viewBox="0 0 32 32" fill="none" xmlns="http://www.w3.org/2000/svg">
<path d="M28.4975 22.2399C27.8075 23.7724 27.475 24.4574 26.5875 25.8099C25.345 27.6999 23.5925 30.0599 21.4275 30.0749C19.5 30.0924 19.0025 28.8174 16.385 28.8399C13.77 28.8524 13.225 30.0999 11.295 30.0799C9.1275 30.0599 7.47 27.9349 6.2275 26.0474C2.7525 20.7549 2.385 14.5499 4.5325 11.2499C6.0525 8.90989 8.455 7.53489 10.7125 7.53489C13.0125 7.53489 14.4575 8.79739 16.3575 8.79739C18.2025 8.79739 19.325 7.53239 21.985 7.53239C23.995 7.53239 26.12 8.62739 27.64 10.5174C22.67 13.2424 23.4775 20.3399 28.4975 22.2399ZM19.965 5.41989C20.9325 4.17739 21.6675 2.42489 21.4 0.639893C19.8225 0.747393 17.9775 1.75489 16.9 3.05989C15.9225 4.24989 15.1125 6.01489 15.4275 7.72239C17.15 7.77739 18.9325 6.74989 19.965 5.41989Z" fill="black"/>
</svg>
