<svg width="18" height="16" viewBox="0 0 18 16" fill="none" xmlns="http://www.w3.org/2000/svg">
<path d="M6.96937 15.2807L0.219375 8.53068C0.149643 8.46102 0.0943219 8.3783 0.0565792 8.28726C0.0188366 8.19621 -0.000589703 8.09861 -0.000589699 8.00005C-0.000589694 7.90149 0.0188367 7.80389 0.0565793 7.71285C0.0943219 7.6218 0.149643 7.53908 0.219375 7.46942L6.96937 0.719425C7.11011 0.578695 7.30098 0.499633 7.5 0.499633C7.69902 0.499633 7.88989 0.578695 8.03063 0.719425C8.17136 0.860156 8.25042 1.05103 8.25042 1.25005C8.25042 1.44907 8.17136 1.63994 8.03063 1.78068L2.56031 7.25005L17.25 7.25005C17.4489 7.25005 17.6397 7.32907 17.7803 7.46972C17.921 7.61037 18 7.80114 18 8.00005C18 8.19896 17.921 8.38973 17.7803 8.53038C17.6397 8.67103 17.4489 8.75005 17.25 8.75005L2.56031 8.75005L8.03062 14.2194C8.17136 14.3602 8.25042 14.551 8.25042 14.7501C8.25042 14.9491 8.17136 15.1399 8.03062 15.2807C7.88989 15.4214 7.69902 15.5005 7.5 15.5005C7.30098 15.5005 7.1101 15.4214 6.96937 15.2807Z" fill="#343433"/>
</svg>
