<svg width="48" height="48" viewBox="0 0 48 48" fill="none" xmlns="http://www.w3.org/2000/svg">
<rect x="0.5" y="0.5" width="47" height="47" rx="7.5" fill="white" stroke="#DCDCDC"/>
<path d="M25.929 19.2852C26.2948 19.2848 26.6571 19.3565 26.9952 19.4964C27.3333 19.6362 27.6404 19.8413 27.8991 20.1C28.1578 20.3587 28.3629 20.6659 28.5028 21.0039C28.6426 21.342 28.7144 21.7043 28.714 22.0702C28.714 22.2691 28.793 22.4598 28.9336 22.6005C29.0743 22.7411 29.265 22.8202 29.464 22.8202C29.6629 22.8202 29.8536 22.7411 29.9943 22.6005C30.1349 22.4598 30.214 22.2691 30.214 22.0702C30.2149 21.5072 30.1047 20.9496 29.8897 20.4293C29.6746 19.909 29.359 19.4362 28.961 19.0382C28.5629 18.6401 28.0901 18.3245 27.5698 18.1095C27.0495 17.8944 26.4919 17.7842 25.929 17.7852C25.73 17.7852 25.5393 17.8642 25.3986 18.0048C25.258 18.1455 25.179 18.3362 25.179 18.5352C25.179 18.7341 25.258 18.9248 25.3986 19.0655C25.5393 19.2061 25.73 19.2852 25.929 19.2852Z" fill="#343433"/>
<path d="M25.932 15.75C26.7623 15.7466 27.5851 15.9082 28.3524 16.2255C29.1198 16.5427 29.8165 17.0092 30.402 17.598C30.9908 18.1835 31.4573 18.8802 31.7745 19.6476C32.0918 20.4149 32.2534 21.2377 32.25 22.068C32.2491 22.2669 32.3272 22.458 32.4672 22.5994C32.6072 22.7407 32.7976 22.8206 32.9965 22.8215C33.1954 22.8224 33.3865 22.7443 33.5279 22.6043C33.6692 22.4643 33.7491 22.2739 33.75 22.075C33.7549 21.0465 33.5551 20.0272 33.1623 19.0766C32.7695 18.126 32.1915 17.2631 31.462 16.538C30.7369 15.8085 29.874 15.2305 28.9234 14.8377C27.9728 14.4449 26.9535 14.2451 25.925 14.25C25.7261 14.2509 25.5357 14.3308 25.3957 14.4721C25.2557 14.6135 25.1776 14.8046 25.1785 15.0035C25.1794 15.2024 25.2593 15.3928 25.4006 15.5328C25.542 15.6728 25.7331 15.7509 25.932 15.75ZM24.929 28.583C22.6861 27.2018 20.798 25.3144 19.416 23.072L21.211 20.916C21.4034 20.6846 21.5328 20.4075 21.5868 20.1114C21.6407 19.8154 21.6174 19.5104 21.519 19.226C21.035 17.812 20.763 16.395 20.737 14.977C20.7312 14.517 20.5444 14.0777 20.217 13.7545C19.8896 13.4312 19.4481 13.25 18.988 13.25H15.057C14.6094 13.2498 14.1787 13.4212 13.8536 13.7289C13.5284 14.0365 13.3336 14.4571 13.309 14.904L13.25 16C13.25 26.348 21.652 34.75 32 34.75L33.096 34.691C33.5429 34.6664 33.9635 34.4716 34.2711 34.1464C34.5788 33.8213 34.7502 33.3906 34.75 32.943C34.75 31.877 34.75 30.15 34.744 29.044C34.7435 28.8129 34.6971 28.5843 34.6075 28.3713C34.5178 28.1583 34.3868 27.9653 34.2219 27.8034C34.057 27.6415 33.8616 27.514 33.6471 27.4283C33.4325 27.3425 33.203 27.3003 32.972 27.304C31.585 27.315 30.198 27.05 28.812 26.518C28.5212 26.4056 28.2056 26.373 27.898 26.4234C27.5903 26.4739 27.3017 26.6056 27.062 26.805L24.929 28.583ZM24.305 29.96L24.307 29.962C24.5294 30.0953 24.7878 30.1562 25.0464 30.1361C25.3049 30.116 25.5508 30.016 25.75 29.85L28.021 27.959C28.0554 27.9304 28.0968 27.9116 28.1409 27.9044C28.1851 27.8971 28.2303 27.9019 28.272 27.918L28.275 27.919C29.844 28.521 31.414 28.816 32.984 28.804H32.995C33.0274 28.8033 33.0597 28.8091 33.0899 28.8209C33.1201 28.8328 33.1477 28.8505 33.171 28.873C33.2176 28.9194 33.2438 28.9823 33.244 29.048V29.052C33.25 30.156 33.25 31.879 33.25 32.943C33.2501 33.0069 33.2257 33.0685 33.1818 33.115C33.1379 33.1615 33.0778 33.1894 33.014 33.193L31.98 33.25C22.48 33.239 14.768 25.532 14.75 16.033L14.807 14.986C14.8106 14.9222 14.8385 14.8621 14.885 14.8182C14.9315 14.7743 14.9931 14.7499 15.057 14.75H18.987C19.053 14.75 19.1162 14.7761 19.1631 14.8225C19.2099 14.869 19.2365 14.932 19.237 14.998V15.005C19.266 16.575 19.564 18.144 20.1 19.714L20.101 19.717C20.1152 19.7574 20.1186 19.8008 20.1109 19.8428C20.1031 19.8849 20.0846 19.9243 20.057 19.957L20.056 19.958C19.533 20.589 18.582 21.73 18.149 22.249C17.9827 22.4483 17.8826 22.6944 17.8626 22.9531C17.8425 23.2119 17.9035 23.4705 18.037 23.693L18.039 23.696C19.5849 26.2643 21.7362 28.4149 24.305 29.96Z" fill="#343433"/>
</svg>
