<svg width="32" height="22" viewBox="0 0 32 22" fill="none" xmlns="http://www.w3.org/2000/svg">
<path d="M29.925 21.8751H2.07498C0.931229 21.8751 0 20.9438 0 19.7938V2.20633C0 1.06258 0.931229 0.131348 2.07498 0.131348H29.9187C31.0687 0.131348 32 1.06258 32 2.20633V19.7938C32 20.9438 31.0688 21.8751 29.925 21.8751Z" fill="#505278"/>
<path d="M29.925 0.131348H16V21.8751H29.925C31.075 21.8751 32 20.9438 32 19.8001V2.20633C32 1.06258 31.0688 0.131348 29.925 0.131348Z" fill="#424566"/>
<path d="M16.6938 0.131244C16.4812 6.54999 11.1937 11.7 4.72499 11.7C3.04998 11.7 1.45 11.3562 0 10.725V7.93125C1.39375 8.73748 3.00627 9.19375 4.72499 9.19375C9.81249 9.19375 13.975 5.16249 14.1875 0.125H16.6937V0.131244H16.6938Z" fill="#575982"/>
<path d="M16 0.131348V3.7626C16.4063 2.61884 16.65 1.4001 16.6937 0.131348H16ZM32 12.8438V15.3813C30.5 15.0938 29.0375 14.9688 27.5875 15.1126C24.9688 15.3751 22.5375 16.6001 19.9313 18.9689C19.5117 19.3512 19.095 19.7366 18.6813 20.1251C18.0563 20.7064 17.4312 21.2939 16.775 21.8689H12.725C14.225 20.8689 15.5687 19.6126 16.975 18.3001C17.3937 17.9127 17.8187 17.5064 18.25 17.1189C21.275 14.3751 24.1625 12.9439 27.3374 12.6251C28.9063 12.4689 30.4938 12.5938 32 12.8438Z" fill="#505278"/>
<path d="M12.725 21.8748H16V19.2061C14.9313 20.1873 13.875 21.1061 12.725 21.8748Z" fill="#575982"/>
<path d="M6.70001 10.7126H3.63125C3.16248 10.7126 2.78125 10.3314 2.78125 9.86261V7.82509C2.78125 7.35633 3.16248 6.9751 3.63125 6.9751H6.70001C7.16878 6.9751 7.55001 7.35633 7.55001 7.82509V9.86261C7.54376 10.3376 7.16872 10.7126 6.70001 10.7126Z" fill="#424566"/>
<path d="M6.70005 10.6625H3.62504C3.18755 10.6625 2.8313 10.3062 2.8313 9.86875V7.82499C2.8313 7.38751 3.18755 7.03125 3.62504 7.03125H6.70005C7.13754 7.03125 7.49379 7.38751 7.49379 7.82499V9.86875C7.49379 10.3062 7.13754 10.6625 6.70005 10.6625Z" fill="#FEBD55"/>
<path d="M7.49379 8.9126V8.7876H5.86879V8.23761L6.28754 7.81885H7.49379C7.49379 7.77509 7.48755 7.73138 7.48131 7.69386H6.25632C6.23759 7.69386 6.22504 7.7001 6.21255 7.71259L5.77507 8.15008H5.22502V7.0376H5.10002V8.15008H4.55627L4.11878 7.71259C4.10695 7.70124 4.0914 7.69459 4.07502 7.69386H2.84379C2.83754 7.73138 2.8313 7.77509 2.8313 7.81885H4.05004L4.46255 8.23136V8.7876H2.8313V8.9126H4.46255V9.46884L4.05004 9.88135H2.8313C2.8313 9.92511 2.83754 9.96882 2.84379 10.0063H4.07502C4.09375 10.0063 4.10629 10.0001 4.11878 9.98761L4.55627 9.55012H5.10002V10.6626H5.22502V9.55012H5.77501L6.2125 9.98761C6.22499 10.0001 6.23748 10.0063 6.25627 10.0063H7.48125C7.4875 9.96882 7.49374 9.92511 7.49374 9.88135H6.28749L5.86874 9.46259V8.9126H7.49379ZM5.74379 9.42507H4.58755V8.26883H5.74379V9.42507Z" fill="#B5613C"/>
<path d="M28.65 10.6249C28.6218 10.6253 28.5939 10.6189 28.5688 10.6061C28.475 10.5624 28.4375 10.4499 28.4875 10.3561C28.9688 9.39988 28.9688 8.30613 28.4875 7.34987C28.4438 7.2561 28.4813 7.14364 28.5688 7.09988C28.6626 7.05612 28.775 7.09364 28.8188 7.18111C29.3563 8.24363 29.3563 9.46238 28.8188 10.5248C28.7813 10.5874 28.7188 10.6249 28.65 10.6249ZM28.0062 10.2686C28.5125 9.3686 28.5125 8.33111 28.0062 7.4311C27.9562 7.34363 27.8437 7.30611 27.75 7.36236C27.6625 7.41237 27.625 7.52488 27.6813 7.6186C28.125 8.4061 28.125 9.30611 27.6813 10.0874C27.6313 10.1748 27.6625 10.2936 27.75 10.3436C27.7783 10.3605 27.8108 10.3692 27.8438 10.3686C27.9062 10.3624 27.9687 10.3249 28.0062 10.2686ZM27.2063 10.0124C27.7 9.29362 27.7 8.39985 27.2063 7.67485C27.15 7.58738 27.0313 7.56859 26.9438 7.62484C26.8563 7.6811 26.8375 7.79985 26.8938 7.88733C27.2938 8.47484 27.2938 9.21233 26.8938 9.79985C26.8375 9.88732 26.8562 9.99983 26.9438 10.0623C26.975 10.0873 27.0125 10.0936 27.05 10.0936C27.1125 10.0999 27.1687 10.0686 27.2063 10.0124ZM26.3625 9.77487C26.6375 9.52488 26.7875 9.1936 26.7875 8.84988C26.7875 8.50617 26.6375 8.17489 26.3625 7.9249C26.2875 7.85616 26.1688 7.85616 26.1 7.93739C26.0313 8.01238 26.0313 8.13113 26.1125 8.19987C26.3062 8.38112 26.4125 8.61238 26.4125 8.84988C26.4125 9.08739 26.3062 9.31865 26.1125 9.4999C26.0375 9.56864 26.0313 9.68739 26.1 9.76238C26.1375 9.7999 26.1875 9.82488 26.2375 9.82488C26.2812 9.82488 26.325 9.80614 26.3625 9.77487Z" fill="#CAD4FF"/>
<path d="M15.7438 18.7251H3.01879C2.91253 18.7251 2.8313 18.6439 2.8313 18.5376C2.8313 18.4313 2.91253 18.3501 3.01879 18.3501H15.7438C15.85 18.3501 15.9313 18.4313 15.9313 18.5376C15.9313 18.6439 15.8438 18.7251 15.7438 18.7251Z" fill="#E6EAFF"/>
<path d="M29.0313 18.7251H26.6188C26.5125 18.7251 26.4313 18.6439 26.4313 18.5376C26.4313 18.4313 26.5125 18.3501 26.6188 18.3501H29.0313C29.1375 18.3501 29.2188 18.4313 29.2188 18.5376C29.2188 18.6439 29.1313 18.7251 29.0313 18.7251ZM25.5938 18.5376C25.5938 18.4313 25.5125 18.3501 25.4063 18.3501H22.9938C22.8875 18.3501 22.8063 18.4313 22.8063 18.5376C22.8063 18.6439 22.8875 18.7251 22.9938 18.7251H25.4063C25.5125 18.7251 25.5938 18.6376 25.5938 18.5376Z" fill="#CAD4FF"/>
<path d="M3.0188 4.39373C2.91254 4.39373 2.83131 4.3125 2.83131 4.20623V3.46874C2.83131 3.36248 2.91254 3.28125 3.0188 3.28125C3.12506 3.28125 3.20629 3.36248 3.20629 3.46874V4.19999C3.20629 4.30625 3.12506 4.39373 3.0188 4.39373ZM4.22505 4.20623V3.46874C4.22505 3.36248 4.14382 3.28125 4.03756 3.28125C3.9313 3.28125 3.85006 3.36248 3.85006 3.46874V4.19999C3.85006 4.30625 3.9313 4.38749 4.03756 4.38749C4.14377 4.39373 4.22505 4.30625 4.22505 4.20623ZM5.25006 4.20623V3.46874C5.25006 3.36248 5.16882 3.28125 5.06256 3.28125C4.9563 3.28125 4.87507 3.36248 4.87507 3.46874V4.19999C4.87507 4.30625 4.9563 4.38749 5.06256 4.38749C5.16253 4.39373 5.25006 4.30625 5.25006 4.20623ZM6.26881 4.20623V3.46874C6.26881 3.36248 6.18758 3.28125 6.08132 3.28125C5.97506 3.28125 5.89382 3.36248 5.89382 3.46874V4.19999C5.89382 4.30625 5.97506 4.38749 6.08132 4.38749C6.18753 4.39373 6.26881 4.30625 6.26881 4.20623ZM3.40628 15.5438H3.375C3.06251 15.5438 2.80627 15.2875 2.80627 14.975V14.0875C2.80627 13.775 3.06251 13.5188 3.375 13.5188H3.40628C3.71877 13.5188 3.97501 13.775 3.97501 14.0875V14.975C3.97527 15.0498 3.96074 15.1239 3.93225 15.193C3.90376 15.2621 3.86188 15.3249 3.80902 15.3778C3.75615 15.4306 3.69335 15.4725 3.62423 15.501C3.55511 15.5295 3.48104 15.544 3.40628 15.5438ZM3.37506 13.8937C3.32375 13.894 3.27462 13.9145 3.23834 13.9507C3.20206 13.987 3.18156 14.0362 3.18132 14.0875V14.975C3.18156 15.0263 3.20206 15.0754 3.23834 15.1117C3.27462 15.148 3.32375 15.1685 3.37506 15.1687H3.40633C3.45764 15.1685 3.50677 15.148 3.54305 15.1117C3.57933 15.0754 3.59982 15.0263 3.60007 14.975V14.0875C3.59982 14.0362 3.57933 13.987 3.54305 13.9507C3.50677 13.9145 3.45764 13.894 3.40633 13.8937H3.37506ZM4.92502 15.5438H4.89375C4.58126 15.5438 4.32502 15.2875 4.32502 14.975V14.0875C4.32502 13.775 4.58126 13.5188 4.89375 13.5188H4.92502C5.23751 13.5188 5.49375 13.775 5.49375 14.0875V14.975C5.49402 15.0498 5.47948 15.1239 5.451 15.193C5.42251 15.2621 5.38063 15.3249 5.32776 15.3778C5.2749 15.4306 5.2121 15.4725 5.14298 15.501C5.07386 15.5295 4.99978 15.544 4.92502 15.5438ZM4.8938 13.8937C4.84249 13.894 4.79336 13.9145 4.75708 13.9507C4.7208 13.987 4.70031 14.0362 4.70006 14.0875V14.975C4.70031 15.0263 4.7208 15.0754 4.75708 15.1117C4.79336 15.148 4.84249 15.1685 4.8938 15.1687H4.92508C4.97638 15.1685 5.02552 15.148 5.0618 15.1117C5.09808 15.0754 5.11857 15.0263 5.11881 14.975V14.0875C5.11857 14.0362 5.09808 13.987 5.0618 13.9507C5.02552 13.9145 4.97638 13.894 4.92508 13.8937H4.8938ZM6.44382 15.5438H6.41254C6.10005 15.5438 5.84382 15.2875 5.84382 14.975V14.0875C5.84382 13.775 6.10005 13.5188 6.41254 13.5188H6.44382C6.75631 13.5188 7.01255 13.775 7.01255 14.0875V14.975C7.01255 15.2875 6.75631 15.5438 6.44382 15.5438ZM6.41254 13.8937C6.36124 13.894 6.3121 13.9145 6.27582 13.9507C6.23954 13.987 6.21905 14.0362 6.21881 14.0875V14.975C6.21905 15.0263 6.23954 15.0754 6.27582 15.1117C6.3121 15.148 6.36124 15.1685 6.41254 15.1687H6.44382C6.49513 15.1685 6.54426 15.148 6.58054 15.1117C6.61682 15.0754 6.63731 15.0263 6.63756 14.975V14.0875C6.63731 14.0362 6.61682 13.987 6.58054 13.9507C6.54426 13.9145 6.49513 13.894 6.44382 13.8937H6.41254ZM7.96256 15.5438H7.93129C7.6188 15.5438 7.36256 15.2875 7.36256 14.975V14.0875C7.36256 13.775 7.6188 13.5188 7.93129 13.5188H7.96256C8.27506 13.5188 8.53129 13.775 8.53129 14.0875V14.975C8.53129 15.2875 8.27506 15.5438 7.96256 15.5438ZM7.93129 13.8937C7.87998 13.894 7.83085 13.9145 7.79457 13.9507C7.75829 13.987 7.7378 14.0362 7.73755 14.0875V14.975C7.7378 15.0263 7.75829 15.0754 7.79457 15.1117C7.83085 15.148 7.87998 15.1685 7.93129 15.1687H7.96256C8.01387 15.1685 8.063 15.148 8.09928 15.1117C8.13556 15.0754 8.15605 15.0263 8.1563 14.975V14.0875C8.15605 14.0362 8.13556 13.987 8.09928 13.9507C8.063 13.9145 8.01387 13.894 7.96256 13.8937H7.93129ZM10.2938 15.5438H10.2625C9.95002 15.5438 9.69378 15.2875 9.69378 14.975V14.0875C9.69378 13.775 9.95002 13.5188 10.2625 13.5188H10.2938C10.6063 13.5188 10.8625 13.775 10.8625 14.0875V14.975C10.8626 15.2875 10.6063 15.5438 10.2938 15.5438ZM10.2626 13.8937C10.2113 13.894 10.1621 13.9145 10.1258 13.9507C10.0896 13.987 10.0691 14.0362 10.0688 14.0875V14.975C10.0691 15.0263 10.0896 15.0754 10.1258 15.1117C10.1621 15.148 10.2113 15.1685 10.2626 15.1687H10.2938C10.3451 15.1685 10.3943 15.148 10.4306 15.1117C10.4668 15.0754 10.4873 15.0263 10.4876 14.975V14.0875C10.4873 14.0362 10.4668 13.987 10.4306 13.9507C10.3943 13.9145 10.3451 13.894 10.2938 13.8937H10.2626ZM11.8125 15.5438H11.7813C11.4688 15.5438 11.2125 15.2875 11.2125 14.975V14.0875C11.2125 13.775 11.4688 13.5188 11.7813 13.5188H11.8125C12.125 13.5188 12.3813 13.775 12.3813 14.0875V14.975C12.3813 15.2875 12.125 15.5438 11.8125 15.5438ZM11.7813 13.8937C11.73 13.894 11.6809 13.9145 11.6446 13.9507C11.6083 13.987 11.5878 14.0362 11.5876 14.0875V14.975C11.5878 15.0263 11.6083 15.0754 11.6446 15.1117C11.6809 15.148 11.73 15.1685 11.7813 15.1687H11.8126C11.8639 15.1685 11.913 15.148 11.9493 15.1117C11.9856 15.0754 12.0061 15.0263 12.0063 14.975V14.0875C12.0061 14.0362 11.9856 13.987 11.9493 13.9507C11.913 13.9145 11.8639 13.894 11.8126 13.8937H11.7813ZM13.3313 15.5438H13.3C12.9875 15.5438 12.7313 15.2875 12.7313 14.975V14.0875C12.7313 13.775 12.9875 13.5188 13.3 13.5188H13.3313C13.6438 13.5188 13.9 13.775 13.9 14.0875V14.975C13.9001 15.2875 13.6438 15.5438 13.3313 15.5438ZM13.3001 13.8937C13.2487 13.894 13.1996 13.9145 13.1633 13.9507C13.1271 13.987 13.1066 14.0362 13.1063 14.0875V14.975C13.1066 15.0263 13.1271 15.0754 13.1633 15.1117C13.1996 15.148 13.2487 15.1685 13.3001 15.1687H13.3313C13.3826 15.1685 13.4318 15.148 13.468 15.1117C13.5043 15.0754 13.5248 15.0263 13.5251 14.975V14.0875C13.5248 14.0362 13.5043 13.987 13.468 13.9507C13.4318 13.9145 13.3826 13.894 13.3313 13.8937H13.3001ZM14.85 15.5438H14.8187C14.5063 15.5438 14.25 15.2875 14.25 14.975V14.0875C14.25 13.775 14.5063 13.5188 14.8187 13.5188H14.85C15.1625 13.5188 15.4187 13.775 15.4187 14.0875V14.975C15.4188 15.2875 15.1626 15.5438 14.85 15.5438ZM14.8188 13.8937C14.7675 13.894 14.7184 13.9145 14.6821 13.9507C14.6458 13.987 14.6253 14.0362 14.6251 14.0875V14.975C14.6253 15.0263 14.6458 15.0754 14.6821 15.1117C14.7184 15.148 14.7675 15.1685 14.8188 15.1687H14.8501C14.9014 15.1685 14.9505 15.148 14.9868 15.1117C15.0231 15.0754 15.0436 15.0263 15.0438 14.975V14.0875C15.0436 14.0362 15.0231 13.987 14.9868 13.9507C14.9505 13.9145 14.9014 13.894 14.8501 13.8937H14.8188Z" fill="#E6EAFF"/>
<path d="M17.1813 15.5435H17.15C16.8375 15.5435 16.5813 15.2873 16.5813 14.9748V14.0873C16.5813 13.7748 16.8375 13.5186 17.15 13.5186H17.1813C17.4938 13.5186 17.75 13.7748 17.75 14.0873V14.9748C17.75 15.2872 17.4938 15.5435 17.1813 15.5435ZM17.15 13.8935C17.0987 13.8937 17.0496 13.9142 17.0133 13.9505C16.977 13.9868 16.9565 14.0359 16.9563 14.0872V14.9747C16.9565 15.0261 16.977 15.0752 17.0133 15.1115C17.0496 15.1477 17.0987 15.1682 17.15 15.1685H17.1813C17.2326 15.1682 17.2817 15.1477 17.318 15.1115C17.3543 15.0752 17.3748 15.0261 17.375 14.9747V14.0872C17.3748 14.0359 17.3543 13.9868 17.318 13.9505C17.2817 13.9142 17.2326 13.8937 17.1813 13.8935H17.15ZM18.7 15.5435H18.6688C18.3563 15.5435 18.1001 15.2873 18.1001 14.9748V14.0873C18.1001 13.7748 18.3563 13.5186 18.6688 13.5186H18.7C19.0125 13.5186 19.2688 13.7748 19.2688 14.0873V14.9748C19.2688 15.2872 19.0125 15.5435 18.7 15.5435ZM18.6688 13.8935C18.6175 13.8937 18.5684 13.9142 18.5321 13.9505C18.4958 13.9868 18.4753 14.0359 18.4751 14.0872V14.9747C18.4753 15.0261 18.4958 15.0752 18.5321 15.1115C18.5684 15.1477 18.6175 15.1682 18.6688 15.1685H18.7C18.7514 15.1682 18.8005 15.1477 18.8368 15.1115C18.873 15.0752 18.8935 15.0261 18.8938 14.9747V14.0872C18.8935 14.0359 18.873 13.9868 18.8368 13.9505C18.8005 13.9142 18.7514 13.8937 18.7 13.8935H18.6688ZM20.2188 15.5435H20.1875C19.875 15.5435 19.6188 15.2873 19.6188 14.9748V14.0873C19.6188 13.7748 19.875 13.5186 20.1875 13.5186H20.2188C20.5313 13.5186 20.7875 13.7748 20.7875 14.0873V14.9748C20.7876 15.2872 20.5313 15.5435 20.2188 15.5435ZM20.1876 13.8935C20.1363 13.8937 20.0871 13.9142 20.0509 13.9505C20.0146 13.9868 19.9941 14.0359 19.9938 14.0872V14.9747C19.9941 15.0261 20.0146 15.0752 20.0509 15.1115C20.0871 15.1477 20.1363 15.1682 20.1876 15.1685H20.2188C20.2702 15.1682 20.3193 15.1477 20.3556 15.1115C20.3918 15.0752 20.4123 15.0261 20.4126 14.9747V14.0872C20.4123 14.0359 20.3918 13.9868 20.3556 13.9505C20.3193 13.9142 20.2702 13.8937 20.2188 13.8935H20.1876ZM21.7375 15.5435H21.7063C21.3938 15.5435 21.1375 15.2873 21.1375 14.9748V14.0873C21.1375 13.7748 21.3938 13.5186 21.7063 13.5186H21.7375C22.05 13.5186 22.3063 13.7748 22.3063 14.0873V14.9748C22.3063 15.2872 22.05 15.5435 21.7375 15.5435ZM21.7063 13.8935C21.655 13.8937 21.6059 13.9142 21.5696 13.9505C21.5333 13.9868 21.5128 14.0359 21.5126 14.0872V14.9747C21.5128 15.0261 21.5333 15.0752 21.5696 15.1115C21.6059 15.1477 21.655 15.1682 21.7063 15.1685H21.7376C21.7889 15.1682 21.838 15.1477 21.8743 15.1115C21.9106 15.0752 21.9311 15.0261 21.9313 14.9747V14.0872C21.9311 14.0359 21.9106 13.9868 21.8743 13.9505C21.838 13.9142 21.7889 13.8937 21.7376 13.8935H21.7063ZM24.0688 15.5435H24.0375C23.725 15.5435 23.4688 15.2873 23.4688 14.9748V14.0873C23.4688 13.7748 23.725 13.5186 24.0375 13.5186H24.0688C24.3813 13.5186 24.6375 13.7748 24.6375 14.0873V14.9748C24.6375 15.2872 24.3813 15.5435 24.0688 15.5435ZM24.0375 13.8935C23.9862 13.8937 23.9371 13.9142 23.9008 13.9505C23.8645 13.9868 23.844 14.0359 23.8438 14.0872V14.9747C23.844 15.0261 23.8645 15.0752 23.9008 15.1115C23.9371 15.1477 23.9862 15.1682 24.0375 15.1685H24.0688C24.1201 15.1682 24.1693 15.1477 24.2055 15.1115C24.2418 15.0752 24.2623 15.0261 24.2626 14.9747V14.0872C24.2623 14.0359 24.2418 13.9868 24.2055 13.9505C24.1693 13.9142 24.1201 13.8937 24.0688 13.8935H24.0375ZM25.5876 15.5435H25.5563C25.2438 15.5435 24.9876 15.2873 24.9876 14.9748V14.0873C24.9876 13.7748 25.2438 13.5186 25.5563 13.5186H25.5876C25.9 13.5186 26.1563 13.7748 26.1563 14.0873V14.9748C26.1563 15.2872 25.9 15.5435 25.5876 15.5435ZM25.5563 13.8935C25.505 13.8937 25.4558 13.9142 25.4196 13.9505C25.3833 13.9868 25.3628 14.0359 25.3625 14.0872V14.9747C25.3628 15.0261 25.3833 15.0752 25.4196 15.1115C25.4558 15.1477 25.505 15.1682 25.5563 15.1685H25.5875C25.6388 15.1682 25.6879 15.1477 25.7242 15.1115C25.7605 15.0752 25.781 15.0261 25.7812 14.9747V14.0872C25.781 14.0359 25.7605 13.9868 25.7242 13.9505C25.6879 13.9142 25.6388 13.8937 25.5875 13.8935H25.5563ZM27.1063 15.5435H27.075C26.7625 15.5435 26.5063 15.2873 26.5063 14.9748V14.0873C26.5063 13.7748 26.7625 13.5186 27.075 13.5186H27.1063C27.4188 13.5186 27.675 13.7748 27.675 14.0873V14.9748C27.675 15.2872 27.4188 15.5435 27.1063 15.5435ZM27.0751 13.8935C27.0238 13.8937 26.9746 13.9142 26.9384 13.9505C26.9021 13.9868 26.8816 14.0359 26.8813 14.0872V14.9747C26.8816 15.0261 26.9021 15.0752 26.9384 15.1115C26.9746 15.1477 27.0238 15.1682 27.0751 15.1685H27.1064C27.1577 15.1682 27.2068 15.1477 27.2431 15.1115C27.2794 15.0752 27.2998 15.0261 27.3001 14.9747V14.0872C27.2998 14.0359 27.2794 13.9868 27.2431 13.9505C27.2068 13.9142 27.1577 13.8937 27.1064 13.8935H27.0751ZM28.625 15.5435H28.5938C28.2813 15.5435 28.025 15.2873 28.025 14.9748V14.0873C28.025 13.7748 28.2813 13.5186 28.5938 13.5186H28.625C28.9375 13.5186 29.1938 13.7748 29.1938 14.0873V14.9748C29.1938 15.2872 28.9375 15.5435 28.625 15.5435ZM28.5938 13.8935C28.5425 13.8937 28.4934 13.9142 28.4571 13.9505C28.4208 13.9868 28.4003 14.0359 28.4001 14.0872V14.9747C28.4003 15.0261 28.4208 15.0752 28.4571 15.1115C28.4934 15.1477 28.5425 15.1682 28.5938 15.1685H28.6251C28.6764 15.1682 28.7255 15.1477 28.7618 15.1115C28.7981 15.0752 28.8186 15.0261 28.8188 14.9747V14.0872C28.8186 14.0359 28.7981 13.9868 28.7618 13.9505C28.7255 13.9142 28.6764 13.8937 28.6251 13.8935H28.5938Z" fill="#CAD4FF"/>
</svg>
