<svg width="21" height="20" viewBox="0 0 21 20" fill="none" xmlns="http://www.w3.org/2000/svg">
<path fill-rule="evenodd" clip-rule="evenodd" d="M5.5435 16.9519C6.2575 16.9519 6.8385 17.5319 6.8385 18.2459C6.8385 18.9599 6.2575 19.5409 5.5435 19.5409C4.8295 19.5409 4.2495 18.9599 4.2495 18.2459C4.2495 17.5319 4.8295 16.9519 5.5435 16.9519ZM16.8238 16.9519C17.5388 16.9519 18.1198 17.5319 18.1198 18.2459C18.1198 18.9599 17.5388 19.5409 16.8238 19.5409C16.1098 19.5409 15.5298 18.9599 15.5298 18.2459C15.5298 17.5319 16.1098 16.9519 16.8238 16.9519ZM1.2677 0.00948704L3.3477 0.369487C3.6827 0.428487 3.9377 0.706487 3.9667 1.04649L4.2017 3.84749L5.07555 3.84786C5.21815 3.84793 5.35923 3.84799 5.49882 3.84805L7.10313 3.84882C7.23101 3.84888 7.35746 3.84894 7.48249 3.84901L9.25388 3.84998C9.36517 3.85004 9.47512 3.85011 9.58375 3.85018L10.8251 3.85097C10.9234 3.85103 11.0205 3.8511 11.1164 3.85117L12.2082 3.85197C12.2944 3.85204 12.3794 3.85211 12.4633 3.85217L13.4152 3.85299C13.4901 3.85306 13.5639 3.85313 13.6366 3.8532L14.2623 3.85382C14.3286 3.85389 14.394 3.85396 14.4583 3.85403L15.1829 3.85487C15.2394 3.85494 15.295 3.85501 15.3496 3.85508L15.9614 3.85594C16.0088 3.85601 16.0554 3.85608 16.1011 3.85615L16.4899 3.8568C16.5306 3.85687 16.5706 3.85695 16.6097 3.85702L17.0428 3.8579C17.0759 3.85797 17.1083 3.85804 17.14 3.85812L17.4066 3.85878C17.4342 3.85886 17.4611 3.85893 17.4874 3.85901L17.7732 3.85991C17.7946 3.85998 17.8154 3.86006 17.8357 3.86014L18.0035 3.86082C18.0205 3.8609 18.0371 3.86097 18.0531 3.86105L18.2228 3.86197C18.2352 3.86205 18.2471 3.86213 18.2586 3.86221L18.3511 3.86291C18.3602 3.86299 18.3689 3.86307 18.3773 3.86314L18.4439 3.86385C18.4504 3.86393 18.4565 3.86401 18.4624 3.86409L18.5077 3.86481C18.5119 3.86489 18.516 3.86497 18.5198 3.86505L18.5484 3.86578C18.5511 3.86586 18.5535 3.86594 18.5558 3.86602L18.5766 3.867L18.5801 3.86725C18.5898 3.86815 18.5927 3.86849 18.5927 3.86849C19.1497 3.94949 19.6397 4.24049 19.9737 4.68849C20.3077 5.13549 20.4477 5.68649 20.3677 6.23849L19.4187 12.7965C19.2397 14.0445 18.1557 14.9855 16.8957 14.9855H5.9747C4.6577 14.9855 3.5427 13.9575 3.4357 12.6425L2.5197 1.74849L1.0127 1.48849C0.6037 1.41649 0.3307 1.02949 0.4007 0.620487C0.4727 0.211487 0.8677 -0.054513 1.2677 0.00948704ZM4.87493 5.34783L4.3277 5.34749L4.9307 12.5195C4.9747 13.0715 5.4257 13.4855 5.9767 13.4855H16.8937C17.4147 13.4855 17.8597 13.0975 17.9337 12.5825L18.8837 6.02349C18.9057 5.86749 18.8667 5.71149 18.7717 5.58549C18.6777 5.45849 18.5397 5.37649 18.3837 5.35449C18.3765 5.35476 18.3592 5.35502 18.3324 5.35524L18.2236 5.35587C18.2009 5.35596 18.1758 5.35605 18.1486 5.35613L17.5821 5.35699C17.5343 5.35702 17.4846 5.35705 17.4331 5.35708L16.1011 5.35702C16.0268 5.357 15.951 5.35696 15.874 5.35693L14.3539 5.35601C14.2628 5.35594 14.1707 5.35587 14.0777 5.3558L13.2176 5.35511C13.1196 5.35503 13.0209 5.35495 12.9215 5.35486L12.0104 5.35406C11.9075 5.35397 11.8042 5.35387 11.7003 5.35378L11.0728 5.3532C10.9675 5.35311 10.8619 5.35301 10.756 5.35291L9.7983 5.35201C9.69151 5.35191 9.58466 5.35181 9.47781 5.35171L8.83717 5.35112C8.73055 5.35102 8.62405 5.35092 8.51774 5.35082L7.88254 5.35025C7.77719 5.35015 7.67216 5.35006 7.56749 5.34997L6.63698 5.34917C6.53505 5.34908 6.43368 5.349 6.33291 5.34892L5.15699 5.34802C5.06209 5.34795 4.96805 5.34789 4.87493 5.34783ZM15.2876 7.54379C15.7016 7.54379 16.0376 7.87979 16.0376 8.29379C16.0376 8.70779 15.7016 9.04379 15.2876 9.04379H12.5156C12.1006 9.04379 11.7656 8.70779 11.7656 8.29379C11.7656 7.87979 12.1006 7.54379 12.5156 7.54379H15.2876Z" fill="#343433"/>
</svg>
