<svg width="32" height="28" viewBox="0 0 32 28" fill="none" xmlns="http://www.w3.org/2000/svg">
<path d="M31.0625 8.35938H2.93433C2.41658 8.35938 1.99683 8.77912 1.99683 9.29688V26.1719C1.99683 26.6896 2.41658 27.1094 2.93433 27.1094H31.0625C31.5802 27.1094 32 26.6896 32 26.1719V9.29688C32 8.77912 31.5802 8.35938 31.0625 8.35938Z" fill="#19A368"/>
<path d="M32 9.29688V26.1719C32 26.6894 31.58 27.1094 31.0625 27.1094H16V8.35938H31.0625C31.58 8.35938 32 8.77938 32 9.29688Z" fill="#119358"/>
<path d="M23.4969 4.64062H6.625L0 11.2688V16.7687L6.625 23.3906H25.3125C26.8527 23.3906 28.125 22.1453 28.125 20.5781V20.4333C28.125 19.2748 27.9403 18.1237 27.5776 17.0234L23.4969 4.64062Z" fill="#2DD384"/>
<path d="M28.125 20.4331V20.5781C28.125 22.145 26.8525 23.3906 25.3125 23.3906H16V4.64062H23.4969L27.5775 17.0231C27.94 18.1237 28.125 19.275 28.125 20.4331Z" fill="#0FB773"/>
<path d="M6.625 5.58125V4.64062H0.9375C0.41975 4.64062 0 5.06037 0 5.57812V11.2688H0.9375C4.07862 11.2688 6.625 8.72237 6.625 5.58125Z" fill="#0FB773"/>
<path d="M0.9375 16.7686H0V22.4529C0 22.9707 0.41975 23.3904 0.9375 23.3904H6.625V22.4561C6.625 19.3149 4.07862 16.7686 0.9375 16.7686Z" fill="#0FB773"/>
<path d="M28.125 20.5781V2.76562C28.125 1.73006 27.2856 0.890625 26.25 0.890625H22.5625C22.0447 0.890625 21.625 1.31037 21.625 1.82812V17.7656C21.625 18.2834 22.0447 18.7031 22.5625 18.7031H26.25C27.2856 18.7031 28.125 19.5426 28.125 20.5781Z" fill="#19A368"/>
<path d="M16 18.6999C18.5647 18.6999 20.6438 16.6207 20.6438 14.056C20.6438 11.4912 18.5647 9.41211 16 9.41211C13.4352 9.41211 11.3561 11.4912 11.3561 14.056C11.3561 16.6207 13.4352 18.6999 16 18.6999Z" fill="#0FB773"/>
<path d="M20.6437 14.0563C20.6437 16.617 18.5606 18.7001 16 18.7001V9.4126C18.5606 9.4126 20.6437 11.4957 20.6437 14.0563Z" fill="#19A368"/>
<path d="M16 16.8249C17.5292 16.8249 18.7688 15.5852 18.7688 14.056C18.7688 12.5268 17.5292 11.2871 16 11.2871C14.4707 11.2871 13.2311 12.5268 13.2311 14.056C13.2311 15.5852 14.4707 16.8249 16 16.8249Z" fill="#2DD384"/>
<path d="M18.7687 14.0563C18.7687 15.5832 17.5269 16.8251 16 16.8251V11.2876C17.5269 11.2876 18.7687 12.5295 18.7687 14.0563Z" fill="#0FB773"/>
</svg>
