<svg width="48" height="48" viewBox="0 0 48 48" fill="none" xmlns="http://www.w3.org/2000/svg">
<rect x="0.5" y="0.5" width="47" height="47" rx="7.5" fill="white" stroke="#DCDCDC"/>
<g clip-path="url(#clip0_1_13517)">
<path d="M34.5024 29.3316C36.8216 26.0777 36.4671 21.6196 33.2994 18.7157C31.852 17.3889 30.0069 16.5629 28.0137 16.3322C28.0013 16.3167 27.9883 16.3017 27.9747 16.2873C26.2407 14.4862 23.7496 13.4531 21.1401 13.4531C16.1742 13.4531 12 17.1531 12 21.8906C12 23.5516 12.516 25.1439 13.4961 26.5191L12.1269 30.8178C12.0848 30.9499 12.0827 31.0916 12.1209 31.2249C12.1591 31.3582 12.2358 31.4772 12.3415 31.567C12.4472 31.6568 12.577 31.7134 12.7147 31.7295C12.8525 31.7457 12.9919 31.7208 13.1155 31.658L17.2793 29.5408C18.1343 29.909 19.0411 30.1506 19.9801 30.2605C21.7914 32.1653 24.296 33.1406 26.8584 33.1406C28.1904 33.1406 29.5176 32.8692 30.7191 32.3532L34.883 34.4705C34.9817 34.5207 35.0908 34.5469 35.2015 34.5469C35.676 34.5469 36.0162 34.0845 35.8716 33.6303L34.5024 29.3316ZM17.563 28.126C17.4659 28.0798 17.3594 28.0566 17.2519 28.0581C17.1444 28.0595 17.0386 28.0856 16.9427 28.1344L13.9771 29.6423L14.9455 26.6017C14.9803 26.4927 14.9879 26.3769 14.9677 26.2642C14.9475 26.1516 14.9001 26.0456 14.8296 25.9554C13.8984 24.7634 13.4062 23.3579 13.4062 21.8906C13.4062 18.0136 16.8756 14.8594 21.1401 14.8594C22.8574 14.8594 24.5106 15.3796 25.8517 16.3165C21.3353 16.7707 17.7184 20.2982 17.7184 24.7031C17.7184 26.0732 18.0696 27.3922 18.7317 28.5739C18.3312 28.4548 17.9405 28.3051 17.563 28.126ZM31.0558 30.9468C30.9599 30.8981 30.8541 30.872 30.7466 30.8705C30.639 30.8691 30.5326 30.8923 30.4355 30.9385C29.3393 31.4592 28.1024 31.7344 26.8584 31.7344C22.5939 31.7344 19.1245 28.5802 19.1245 24.7031C19.1245 20.8261 22.5939 17.6719 26.8584 17.6719C31.1229 17.6719 34.5923 20.8261 34.5923 24.7031C34.5923 26.1704 34.1001 27.5759 33.1688 28.7679C33.0984 28.8581 33.051 28.9641 33.0308 29.0767C33.0106 29.1893 33.0182 29.3052 33.0529 29.4142L34.0214 32.4548L31.0558 30.9468Z" fill="#343433"/>
<path d="M23.9993 25.4062C24.3876 25.4062 24.7024 25.0915 24.7024 24.7031C24.7024 24.3148 24.3876 24 23.9993 24C23.6109 24 23.2961 24.3148 23.2961 24.7031C23.2961 25.0915 23.6109 25.4062 23.9993 25.4062Z" fill="#343433"/>
<path d="M26.8115 25.4062C27.1998 25.4062 27.5146 25.0915 27.5146 24.7031C27.5146 24.3148 27.1998 24 26.8115 24C26.4232 24 26.1084 24.3148 26.1084 24.7031C26.1084 25.0915 26.4232 25.4062 26.8115 25.4062Z" fill="#343433"/>
<path d="M29.624 25.4062C30.0123 25.4062 30.3271 25.0915 30.3271 24.7031C30.3271 24.3148 30.0123 24 29.624 24C29.2357 24 28.9209 24.3148 28.9209 24.7031C28.9209 25.0915 29.2357 25.4062 29.624 25.4062Z" fill="#343433"/>
</g>
<defs>
<clipPath id="clip0_1_13517">
<rect width="24" height="24" fill="white" transform="translate(12 12)"/>
</clipPath>
</defs>
</svg>
