<svg width="20" height="18" viewBox="0 0 20 18" fill="none" xmlns="http://www.w3.org/2000/svg">
<path d="M16.2617 3.36164C16.4632 3.28458 16.5641 3.05875 16.487 2.85725C16.41 2.65575 16.1841 2.55488 15.9826 2.63194C15.7811 2.70901 15.6803 2.93483 15.7573 3.13633C15.8344 3.33784 16.0602 3.43871 16.2617 3.36164Z" fill="#343433"/>
<path d="M12.2278 8.76531H12.2255C12.048 8.76629 11.8272 8.76719 11.6425 8.76754V6.37C11.6425 6.15383 11.4672 5.97859 11.2511 5.97859C11.0349 5.97859 10.8596 6.15383 10.8596 6.37V9.15672C10.8596 9.34734 10.997 9.51023 11.1848 9.54246C11.213 9.5473 11.2326 9.55066 11.543 9.55066C11.693 9.55066 11.9107 9.54988 12.2298 9.54809C12.446 9.54688 12.6203 9.37066 12.6191 9.15449C12.6179 8.9391 12.4429 8.76531 12.2278 8.76531ZM14.6021 8.76531H14.5998C14.4223 8.76629 14.2015 8.76719 14.0168 8.76754V6.37C14.0168 6.15383 13.8415 5.97859 13.6253 5.97859C13.4092 5.97859 13.2339 6.15383 13.2339 6.37V9.15672C13.2339 9.24903 13.2666 9.33837 13.3261 9.40896C13.3856 9.47954 13.4681 9.52683 13.5591 9.54246C13.5872 9.5473 13.6068 9.55066 13.9176 9.55066C14.0675 9.55066 14.2852 9.54988 14.6041 9.54809C14.8203 9.54688 14.9945 9.37066 14.9934 9.15449C14.9922 8.9391 14.8172 8.76531 14.6021 8.76531ZM5.96648 9.55043C6.18261 9.55043 6.35789 9.3752 6.35789 9.15902V6.76133H6.73972C6.95586 6.76133 7.13113 6.58609 7.13113 6.36992C7.13113 6.15375 6.9559 5.97852 6.73972 5.97852H5.19945C4.98332 5.97852 4.80804 6.15375 4.80804 6.36992C4.80804 6.58609 4.98328 6.76133 5.19945 6.76133H5.57508V9.15902C5.57508 9.37524 5.75031 9.55043 5.96648 9.55043ZM6.66035 10.9787C6.87648 10.9787 7.05176 10.8034 7.05176 10.5873C7.05176 10.3711 6.87652 10.1959 6.66035 10.1959H5.5382C5.32207 10.1959 5.14679 10.3711 5.14679 10.5873V13.3559C5.14679 13.5721 5.32203 13.7473 5.5382 13.7473C5.75433 13.7473 5.92961 13.5721 5.92961 13.3559V12.3368H6.57125C6.78738 12.3368 6.96265 12.1616 6.96265 11.9454C6.96265 11.7292 6.78742 11.554 6.57125 11.554H5.92961V10.9787H6.66035ZM12.1204 10.9812C12.3365 10.9812 12.5118 10.806 12.5118 10.5898C12.5118 10.3736 12.3366 10.1984 12.1204 10.1984H10.9559C10.7398 10.1984 10.5645 10.3736 10.5645 10.5898V13.3534C10.5645 13.5696 10.7398 13.7448 10.9559 13.7448H12.1204C12.3365 13.7448 12.5118 13.5696 12.5118 13.3534C12.5118 13.1373 12.3366 12.962 12.1204 12.962H11.3473V12.363H12.0345C12.2507 12.363 12.4259 12.1878 12.4259 11.9716C12.4259 11.7554 12.2507 11.5802 12.0345 11.5802H11.3473V10.9812H12.1204ZM14.4511 10.9812C14.6672 10.9812 14.8425 10.806 14.8425 10.5898C14.8425 10.3736 14.6672 10.1984 14.4511 10.1984H13.2866C13.0705 10.1984 12.8952 10.3736 12.8952 10.5898V13.3534C12.8952 13.5696 13.0704 13.7448 13.2866 13.7448H14.4511C14.6672 13.7448 14.8425 13.5696 14.8425 13.3534C14.8425 13.1373 14.6672 12.962 14.4511 12.962H13.678V12.363H14.3652C14.5813 12.363 14.7566 12.1878 14.7566 11.9716C14.7566 11.7554 14.5814 11.5802 14.3652 11.5802H13.678V10.9812H14.4511ZM9.88687 11.302C9.88687 10.6864 9.36769 10.1857 8.72961 10.1857H7.98844L7.98801 10.1857L7.98758 10.1857C7.77144 10.1857 7.59617 10.3609 7.59617 10.5771V13.3662C7.59617 13.5823 7.7714 13.7576 7.98758 13.7576C8.20371 13.7576 8.37898 13.5823 8.37898 13.3662V12.69L9.20172 13.6248C9.23842 13.6666 9.28364 13.7 9.33433 13.7229C9.38503 13.7458 9.44003 13.7577 9.49566 13.7576C9.59082 13.7577 9.68272 13.723 9.75406 13.66C9.91636 13.5172 9.93211 13.2699 9.78929 13.1076L9.12379 12.3515C9.5684 12.1956 9.88687 11.784 9.88687 11.302ZM8.72957 10.9685C8.93258 10.9685 9.10406 11.1212 9.10406 11.302C9.10406 11.4827 8.93258 11.6354 8.72957 11.6354C8.64746 11.6354 8.51215 11.6359 8.38101 11.6365C8.38039 11.5094 8.3814 11.102 8.38101 10.9685H8.72957ZM8.60867 6.16734C7.72801 6.16734 7.01152 6.88383 7.01152 7.76453C7.01152 8.64523 7.72801 9.36172 8.60867 9.36172C9.48937 9.36172 10.2059 8.64523 10.2059 7.76453C10.2059 6.88383 9.48937 6.16734 8.60867 6.16734ZM8.60867 8.57895C8.15961 8.57895 7.79429 8.21359 7.79429 7.76453C7.79429 7.31547 8.15961 6.95012 8.60867 6.95012C9.05773 6.95012 9.42308 7.31547 9.42308 7.76453C9.42308 8.21359 9.05773 8.57895 8.60867 8.57895Z" fill="#343433"/>
<path d="M18.9677 8.17453C18.8277 6.7448 18.3426 5.35746 17.5584 4.15352C17.4405 3.97242 17.198 3.92109 17.0169 4.03914C16.8357 4.15711 16.7846 4.39957 16.9025 4.5807C17.4864 5.47715 17.8883 6.48508 18.0863 7.53441C17.8073 7.39215 17.5104 7.28821 17.2036 7.22543C16.2902 3.96687 13.3713 1.71086 10.0262 1.71086C8.32852 1.71086 6.72875 2.27742 5.39992 3.34926C4.17926 4.33383 3.28184 5.69871 2.85277 7.21406C2.84781 7.21492 2.84281 7.21555 2.83785 7.21652C2.52453 7.27686 2.221 7.38 1.93578 7.52305C2.26105 5.80289 3.12922 4.22879 4.43238 3.02395C5.95465 1.61652 7.93559 0.841406 10.0104 0.841406C11.6292 0.841406 13.1953 1.31141 14.5393 2.20055C14.7195 2.31977 14.9623 2.27039 15.0816 2.09008C15.2009 1.9098 15.1515 1.66699 14.9712 1.5477C13.4987 0.573516 11.7833 0.0585938 10.0104 0.0585938C7.73801 0.0585938 5.56832 0.907578 3.90094 2.44914C2.2802 3.94766 1.27348 5.96809 1.05469 8.1525C0.399844 8.79422 0 9.6866 0 10.6566C0 11.8568 0.611602 12.9389 1.56211 13.5732C1.67008 15.4498 3.23074 16.9435 5.13395 16.9435H8.67352C8.84309 17.5218 9.37809 17.9455 10.0105 17.9455C10.7788 17.9455 11.4038 17.3204 11.4038 16.5521C11.4038 15.7839 10.7788 15.1588 10.0105 15.1588C9.37809 15.1588 8.84309 15.5825 8.67352 16.1608H5.13395C3.80559 16.1608 2.69148 15.2291 2.40879 13.9851C2.54931 14.0313 2.69261 14.0686 2.83785 14.0966C3.37844 14.2007 3.89461 13.7727 3.89461 13.2233V8.08984C3.89478 7.96613 3.86904 7.84375 3.81905 7.73058C3.76906 7.61742 3.69594 7.51597 3.60438 7.43277C3.98883 6.0702 4.79477 4.84309 5.89137 3.95855C7.07953 3.0002 8.50934 2.49363 10.0262 2.49363C13.0048 2.49363 15.6069 4.49711 16.4385 7.39625C16.4352 7.39891 16.4318 7.40137 16.4285 7.40406C16.3273 7.48738 16.2459 7.5921 16.19 7.71068C16.1341 7.82927 16.1052 7.95876 16.1054 8.08984V13.2232C16.1054 13.7727 16.6216 14.2005 17.1622 14.0966C18.8065 13.7802 20 12.3335 20 10.6566C20 9.69769 19.6093 8.81457 18.9677 8.17453ZM10.0105 15.9416C10.3471 15.9416 10.621 16.2155 10.621 16.5521C10.621 16.8888 10.3471 17.1627 10.0105 17.1627C9.67383 17.1627 9.39992 16.8888 9.39992 16.5521C9.39992 16.2155 9.67383 15.9416 10.0105 15.9416ZM3.1118 13.2232C3.1118 13.289 3.05062 13.3404 2.98574 13.3279C1.70926 13.0823 0.782773 11.9589 0.782773 10.6566C0.782773 9.3543 1.70926 8.23086 2.9857 7.98523C3.05047 7.97289 3.1118 8.02391 3.1118 8.08992V13.2232ZM17.0143 13.3279C16.9494 13.3402 16.8882 13.2891 16.8882 13.2232V8.08984C16.8882 8.02402 16.9494 7.97273 17.0143 7.98516C18.2907 8.23078 19.2172 9.35422 19.2172 10.6565C19.2172 11.9589 18.2907 13.0823 17.0143 13.3279Z" fill="#343433"/>
</svg>
