<svg width="16" height="16" viewBox="0 0 16 16" fill="none" xmlns="http://www.w3.org/2000/svg">
<path d="M15.5 8.00022C15.5025 9.48919 15.0596 10.9449 14.2283 12.1802C13.5428 13.2027 12.6159 14.0405 11.5296 14.6195C10.4433 15.1986 9.23101 15.5011 8 15.5002C6.76899 15.5011 5.55674 15.1986 4.47042 14.6195C3.38411 14.0405 2.4572 13.2027 1.77167 12.1802C1.11894 11.2072 0.703252 10.0948 0.557922 8.93225C0.412591 7.76965 0.541663 6.58918 0.93479 5.48545C1.32792 4.38173 1.97416 3.38546 2.82172 2.57651C3.66928 1.76756 4.69458 1.16844 5.81542 0.827164C6.93627 0.48589 8.12147 0.41196 9.27604 0.611302C10.4306 0.810644 11.5224 1.27771 12.4639 1.97506C13.4054 2.67242 14.1705 3.58065 14.6977 4.62697C15.225 5.67328 15.4997 6.82857 15.5 8.00022Z" stroke="#343433"/>
<path d="M9.24999 5.49935C9.24999 5.83087 9.11829 6.14881 8.88387 6.38323C8.64945 6.61765 8.33151 6.74935 7.99999 6.74935V7.58268C8.27357 7.58268 8.54448 7.5288 8.79724 7.4241C9.05001 7.3194 9.27967 7.16594 9.47313 6.97249C9.66658 6.77903 9.82004 6.54937 9.92474 6.29661C10.0294 6.04384 10.0833 5.77294 10.0833 5.49935H9.24999ZM7.99999 6.74935C7.66847 6.74935 7.35052 6.61765 7.1161 6.38323C6.88168 6.14881 6.74999 5.83087 6.74999 5.49935H5.91665C5.91665 5.77294 5.97054 6.04384 6.07524 6.29661C6.17993 6.54937 6.33339 6.77903 6.52685 6.97249C6.91755 7.36319 7.44745 7.58268 7.99999 7.58268V6.74935ZM6.74999 5.49935C6.74999 5.16783 6.88168 4.84989 7.1161 4.61547C7.35052 4.38104 7.66847 4.24935 7.99999 4.24935V3.41602C7.44745 3.41602 6.91755 3.63551 6.52685 4.02621C6.13615 4.41691 5.91665 4.94681 5.91665 5.49935H6.74999ZM7.99999 4.24935C8.33151 4.24935 8.64945 4.38104 8.88387 4.61547C9.11829 4.84989 9.24999 5.16783 9.24999 5.49935H10.0833C10.0833 4.94681 9.86383 4.41691 9.47313 4.02621C9.08243 3.63551 8.55252 3.41602 7.99999 3.41602V4.24935ZM2.30499 12.8793L1.90499 12.761L1.84082 12.9785L1.98832 13.151L2.30499 12.8793ZM13.695 12.8793L14.0117 13.151L14.1592 12.9785L14.0942 12.761L13.695 12.8793ZM5.49999 10.916H10.5V10.0827H5.49999V10.916ZM5.49999 10.0827C4.69243 10.0828 3.90648 10.3435 3.25895 10.8261C2.61141 11.3086 2.13602 11.9872 1.90499 12.761L2.70415 12.9985C2.88404 12.3968 3.25325 11.8691 3.75694 11.4939C4.26063 11.1187 4.87192 10.9161 5.49999 10.916V10.0827ZM7.99999 15.0827C6.97771 15.0838 5.96737 14.8631 5.03868 14.4358C4.10999 14.0085 3.28506 13.3848 2.62082 12.6077L1.98832 13.151C2.73086 14.0191 3.65285 14.7159 4.69071 15.1933C5.72857 15.6706 6.85761 15.9172 7.99999 15.916V15.0827ZM10.5 10.916C11.1282 10.9161 11.7395 11.1189 12.2432 11.4943C12.7469 11.8696 13.1161 12.3974 13.2958 12.9993L14.0942 12.761C13.8631 11.9872 13.3886 11.3086 12.741 10.8261C12.0935 10.3435 11.3075 10.0828 10.5 10.0827V10.916ZM13.3792 12.6077C12.7149 13.3848 11.89 14.0085 10.9613 14.4358C10.0326 14.8631 9.02226 15.0838 7.99999 15.0827V15.916C9.14236 15.9172 10.2714 15.6706 11.3093 15.1933C12.3471 14.7159 13.2691 14.0191 14.0117 13.151L13.3783 12.6085L13.3792 12.6077Z" fill="#343433"/>
</svg>
