<svg width="186" height="180" viewBox="0 0 186 180" fill="none" xmlns="http://www.w3.org/2000/svg">
<path d="M93 180C48.2638 180 0 151.825 0 90C0 28.1753 48.2638 0 93 0C117.853 0 140.783 8.21109 157.779 23.1843C176.219 39.6064 186 62.7907 186 90C186 117.209 176.219 140.233 157.779 156.655C140.783 171.628 117.693 180 93 180Z" fill="url(#paint0_radial_203_828)"/>
<path d="M169.789 36.498C178.336 50.3442 182.793 66.8308 182.793 85.1689C182.793 112.378 173.012 135.401 154.572 151.824C137.576 166.797 114.486 175.169 89.7931 175.169C60.8348 175.169 30.4655 163.335 12.5389 138.235C29.792 166.668 62.2458 179.999 93 179.999C117.693 179.999 140.783 171.627 157.779 156.654C176.219 140.232 186 117.208 186 89.9989C186 69.4873 180.436 51.2619 169.789 36.498Z" fill="#EB8F00"/>
<path d="M94.2827 122.843C88.5424 122.843 82.8501 121.877 77.4465 119.945C70.7922 117.642 63.5607 121.2 61.2677 127.866C59.9689 131.633 60.4981 135.787 62.6948 139.104C69.5896 149.73 80.4931 155.526 94.2827 155.526C108.072 155.526 118.976 149.73 125.871 139.104C129.767 133.227 128.164 125.29 122.311 121.377C119.008 119.172 114.871 118.64 111.119 119.945C105.715 121.877 100.023 122.843 94.2827 122.843Z" fill="#422B0D"/>
<path opacity="0.8" d="M45.8581 132.343C61.3554 132.343 73.9184 120.45 73.9184 105.778C73.9184 91.1066 61.3554 79.2129 45.8581 79.2129C30.3608 79.2129 17.7977 91.1066 17.7977 105.778C17.7977 120.45 30.3608 132.343 45.8581 132.343Z" fill="url(#paint1_radial_203_828)"/>
<path opacity="0.8" d="M142.707 132.343C158.205 132.343 170.768 120.45 170.768 105.778C170.768 91.1066 158.205 79.2129 142.707 79.2129C127.21 79.2129 114.647 91.1066 114.647 105.778C114.647 120.45 127.21 132.343 142.707 132.343Z" fill="url(#paint2_radial_203_828)"/>
<path d="M163.536 44.0656C150.372 40.3465 140.703 51.1497 140.703 51.1497C140.703 51.1497 139.58 38.8975 128.324 35.0495C114.823 30.3966 100.568 37.8027 99.7186 57.0102C98.7566 78.8903 127.587 107.613 127.587 107.613C127.587 107.613 163.376 97.9529 175.097 77.4735C184.637 60.8098 173.493 46.8671 163.536 44.0656Z" fill="#F44336"/>
<path d="M163.536 44.0669C161.917 43.6322 160.249 43.439 158.582 43.4712C163.296 46.643 167.032 51.0705 169.357 56.2548C171.618 61.7127 172.211 68.7646 167.914 77.185C158.598 95.4909 129.912 106.825 127.827 107.614C130.441 106.874 163.889 97.2136 175.161 77.5231C184.638 60.8111 173.494 46.8684 163.536 44.0669Z" fill="#C62828"/>
<path d="M140.686 53.1302C140.59 51.4558 140.333 49.7814 139.949 48.1392C139.019 43.4057 136.1 39.3002 131.931 36.869C129.077 35.1946 125.918 34.132 122.647 33.7295C122.647 33.7295 127.458 35.1946 130.889 41.8762C132.637 45.386 133.679 49.2179 133.936 53.1302C133.92 54.5631 134.176 55.9638 134.689 57.3002C135.267 58.6365 136.678 59.4254 138.121 59.2C140.317 58.6365 140.798 55.8833 140.686 53.1302Z" fill="#C62828"/>
<path d="M109.515 45.4524C112.513 41.7171 117.436 38.159 122.15 41.4434C124.651 43.1983 124.683 48.1733 121.621 50.4112C116.458 54.2109 116.217 56.7064 115.64 58.7994C114.934 61.2949 114.485 64.2735 112.225 65.5293C109.964 66.7851 107.975 65.5293 106.789 61.939C104.769 56.3361 105.795 50.0892 109.515 45.4524Z" fill="#FF847A"/>
<path d="M56.3124 34.7287C43.3084 38.963 41.2239 53.3405 41.2239 53.3405C41.2239 53.3405 33.5273 43.6804 21.9825 46.8038C8.2089 50.4424 0.432177 64.5462 10.2613 80.9845C21.6458 99.8217 61.4754 107.63 61.4754 107.63C61.4754 107.63 85.928 79.6804 84.3887 56.1097C83.122 36.9183 66.1415 31.5247 56.3124 34.7287Z" fill="#F44336"/>
<path d="M56.3134 34.7287C54.726 35.244 53.2027 35.9846 51.8077 36.9184C57.4839 36.9345 63.0319 38.5445 67.8422 41.5713C72.7488 44.7914 77.1262 50.3942 78.2165 59.8128C80.5736 80.2439 62.9357 105.634 61.5727 107.485C63.3526 105.425 85.8489 78.7627 84.3738 56.0937C83.1231 36.9184 66.1426 31.5248 56.3134 34.7287Z" fill="#C62828"/>
<path d="M42.3305 55.0309C41.3363 53.6624 40.2139 52.4066 38.9632 51.2796C35.596 47.8341 30.9299 45.9987 26.1356 46.2563C22.8486 46.4495 19.6256 47.3028 16.6753 48.8001C16.6753 48.8001 21.4856 47.335 28.0277 51.0059C31.4431 52.9862 34.4094 55.6427 36.7825 58.7984C37.5522 60.0059 38.5463 61.0363 39.7168 61.8574C40.9355 62.6463 42.5389 62.5014 43.6132 61.5193C45.0403 59.7805 43.9339 57.2366 42.3305 55.0309Z" fill="#C62828"/>
<path d="M12.1863 66.0114C12.2504 64.659 12.491 63.3226 12.8918 62.0346C13.5492 59.3298 15.4573 57.0919 18.0068 56.0132C20.4601 55.2403 23.8594 55.7878 25.1742 58.2511C26.3448 60.4407 25.4949 63.0811 24.8536 65.4962C24.2763 68.2654 23.9556 71.099 23.8915 73.9327C23.9075 76.2511 22.0636 78.1348 19.7546 78.167C17.5739 78.167 15.8742 76.2672 14.6556 74.4479C12.956 71.9684 12.0901 69.0221 12.1863 66.0114Z" fill="#FF847A"/>
<defs>
<radialGradient id="paint0_radial_203_828" cx="0" cy="0" r="1" gradientUnits="userSpaceOnUse" gradientTransform="translate(93 90) scale(91.3319 91.7061)">
<stop offset="0.5" stop-color="#FDE030"/>
<stop offset="0.92" stop-color="#F7C02B"/>
<stop offset="1" stop-color="#F4A223"/>
</radialGradient>
<radialGradient id="paint1_radial_203_828" cx="0" cy="0" r="1" gradientUnits="userSpaceOnUse" gradientTransform="translate(45.8581 93.559) scale(30.5808 27.5728)">
<stop stop-color="#ED7770"/>
<stop offset="0.9" stop-color="#ED7770" stop-opacity="0"/>
</radialGradient>
<radialGradient id="paint2_radial_203_828" cx="0" cy="0" r="1" gradientUnits="userSpaceOnUse" gradientTransform="translate(188.438 4058.19) scale(31.2031 31.3309)">
<stop stop-color="#ED7770"/>
<stop offset="0.9" stop-color="#ED7770" stop-opacity="0"/>
</radialGradient>
</defs>
</svg>
