<svg width="28" height="28" viewBox="0 0 28 28" fill="none" xmlns="http://www.w3.org/2000/svg">
<path d="M13.9998 0.666992C21.3598 0.666992 27.3332 6.64033 27.3332 14.0003C27.3332 21.3737 21.3598 27.3337 13.9998 27.3337C6.6265 27.3337 0.666504 21.3737 0.666504 14.0003C0.666504 6.64033 6.6265 0.666992 13.9998 0.666992ZM19.1332 9.61366C19.2798 9.14699 18.8532 8.70699 18.3865 8.85366L11.5598 10.987C11.2798 11.0803 11.0532 11.2937 10.9732 11.5737L8.83984 18.4137C8.69317 18.867 9.13317 19.307 9.5865 19.1603L16.3865 17.027C16.6665 16.947 16.8932 16.7203 16.9732 16.4403L19.1332 9.61366Z" fill="#CC2027"/>
</svg>
