<svg width="29" height="29" viewBox="0 0 29 29" fill="none" xmlns="http://www.w3.org/2000/svg">
<path fill-rule="evenodd" clip-rule="evenodd" d="M14.4814 0.666504C22.0987 0.666504 28.296 6.86384 28.296 14.4812C28.296 22.0985 22.0987 28.2958 14.4814 28.2958C6.86402 28.2958 0.666687 22.0985 0.666687 14.4812C0.666687 6.86384 6.86402 0.666504 14.4814 0.666504ZM14.4814 2.6665C7.96669 2.6665 2.66669 7.96784 2.66669 14.4812C2.66669 20.9958 7.96669 26.2958 14.4814 26.2958C20.996 26.2958 26.296 20.9958 26.296 14.4812C26.296 7.96784 20.996 2.6665 14.4814 2.6665ZM19.6435 9.3197C19.9062 9.5837 20.0022 9.9717 19.8902 10.325L17.7675 17.1104C17.6702 17.4237 17.4235 17.669 17.1115 17.7664L10.3262 19.8904C10.2275 19.921 10.1262 19.9357 10.0275 19.9357C9.76615 19.9357 9.51015 19.833 9.31949 19.6437C9.05682 19.3797 8.96082 18.9917 9.07282 18.6384L11.1968 11.853C11.2942 11.5384 11.5395 11.2944 11.8515 11.197L18.6368 9.07304C18.9928 8.9597 19.3795 9.05704 19.6435 9.3197ZM17.4115 11.5517L12.9488 12.949L11.5528 17.4117L16.0142 16.0144L17.4115 11.5517Z" fill="#C1C1C1"/>
</svg>
