<svg width="20" height="18" viewBox="0 0 20 18" fill="none" xmlns="http://www.w3.org/2000/svg">
<path d="M4.42 14.7297C2.19 13.2697 0.75 11.0697 0.75 9.13972C0.75 5.85972 4.89 1.83972 10 1.83972C12.09 1.83972 14.03 2.50972 15.59 3.54972" stroke="#707070" stroke-width="1.5" stroke-linecap="round" stroke-linejoin="round"/>
<path d="M17.8497 5.61023C18.7407 6.74023 19.2597 7.99023 19.2597 9.14023C19.2597 12.4202 15.1097 16.4402 9.99969 16.4402C9.08969 16.4402 8.20069 16.3102 7.36969 16.0802" stroke="#707070" stroke-width="1.5" stroke-linecap="round" stroke-linejoin="round"/>
<path d="M7.76571 11.3669C7.17071 10.7779 6.83771 9.97494 6.84069 9.13794C6.83671 7.39294 8.24871 5.97494 9.99471 5.97193C10.8347 5.96994 11.6407 6.30294 12.2347 6.89694" stroke="#707070" stroke-width="1.5" stroke-linecap="round" stroke-linejoin="round"/>
<path d="M13.1095 9.6991C12.8755 10.9911 11.8645 12.0041 10.5725 12.2411" stroke="#707070" stroke-width="1.5" stroke-linecap="round" stroke-linejoin="round"/>
<path d="M17.8917 1.24988L2.11771 17.0239" stroke="#707070" stroke-width="1.5" stroke-linecap="round" stroke-linejoin="round"/>
</svg>
