<svg width="60" height="60" viewBox="0 0 60 60" fill="none" xmlns="http://www.w3.org/2000/svg">
<rect x="0.5" y="0.5" width="59" height="59" rx="7.5" fill="white" stroke="#DCDCDC"/>
<g clip-path="url(#clip0_1_13538)">
<path d="M45 30C45 37.4871 39.5145 43.6928 32.3438 44.8178V34.3359H35.8389L36.5039 30H32.3438V27.1863C32.3438 25.9998 32.925 24.8438 34.7883 24.8438H36.6797V21.1523C36.6797 21.1523 34.9629 20.8594 33.3217 20.8594C29.8957 20.8594 27.6562 22.9359 27.6562 26.6953V30H23.8477V34.3359H27.6562V44.8178C20.4855 43.6928 15 37.4871 15 30C15 21.716 21.716 15 30 15C38.284 15 45 21.716 45 30Z" fill="#CC2027"/>
<path d="M35.8389 34.3359L36.5039 30H32.3438V27.1863C32.3438 26 32.9249 24.8438 34.7882 24.8438H36.6797V21.1523C36.6797 21.1523 34.9631 20.8594 33.322 20.8594C29.8956 20.8594 27.6562 22.9359 27.6562 26.6953V30H23.8477V34.3359H27.6562V44.8177C28.42 44.9375 29.2027 45 30 45C30.7973 45 31.58 44.9375 32.3438 44.8177V34.3359H35.8389Z" fill="white"/>
</g>
<defs>
<clipPath id="clip0_1_13538">
<rect width="30" height="30" fill="white" transform="translate(15 15)"/>
</clipPath>
</defs>
</svg>
