<svg width="19" height="19" viewBox="0 0 19 19" fill="none" xmlns="http://www.w3.org/2000/svg">
<path d="M8.14367 14.8828H1.67114" stroke="#CC2027" stroke-width="1.5" stroke-linecap="round" stroke-linejoin="round"/>
<path fill-rule="evenodd" clip-rule="evenodd" d="M12.205 14.8834C12.205 16.9252 12.8859 17.6052 14.9268 17.6052C16.9677 17.6052 17.6486 16.9252 17.6486 14.8834C17.6486 12.8416 16.9677 12.1616 14.9268 12.1616C12.8859 12.1616 12.205 12.8416 12.205 14.8834Z" stroke="#CC2027" stroke-width="1.5" stroke-linecap="round" stroke-linejoin="round"/>
<path d="M11.1766 4.39404H17.6482" stroke="#CC2027" stroke-width="1.5" stroke-linecap="round" stroke-linejoin="round"/>
<path fill-rule="evenodd" clip-rule="evenodd" d="M7.11526 4.39269C7.11526 2.35179 6.43436 1.6709 4.39347 1.6709C2.35168 1.6709 1.67078 2.35179 1.67078 4.39269C1.67078 6.43448 2.35168 7.11448 4.39347 7.11448C6.43436 7.11448 7.11526 6.43448 7.11526 4.39269Z" stroke="#CC2027" stroke-width="1.5" stroke-linecap="round" stroke-linejoin="round"/>
</svg>
