<svg width="21" height="20" viewBox="0 0 21 20" fill="none" xmlns="http://www.w3.org/2000/svg">
<path d="M6.69774 0.500155C7.32774 0.519314 7.93774 0.629314 8.52874 0.830314H8.58774C8.62774 0.849314 8.65774 0.870314 8.67774 0.889314C8.89874 0.960314 9.10774 1.04031 9.30774 1.15031L9.68774 1.32031C9.83774 1.40031 10.0177 1.54931 10.1177 1.61031C10.2177 1.66931 10.3277 1.73031 10.4177 1.79931C11.5287 0.950314 12.8777 0.490314 14.2677 0.500155C14.8987 0.500155 15.5287 0.589314 16.1277 0.790314C19.8187 1.99031 21.1487 6.04031 20.0377 9.58031C19.4077 11.3893 18.3777 13.0403 17.0287 14.3893C15.0977 16.2593 12.9787 17.9193 10.6977 19.3493L10.4477 19.5003L10.1877 19.3393C7.89874 17.9193 5.76774 16.2593 3.81874 14.3793C2.47874 13.0303 1.44774 11.3893 0.807741 9.58031C-0.322259 6.04031 1.00774 1.99031 4.73874 0.769314C5.02874 0.669314 5.32774 0.599314 5.62774 0.560314H5.74774C6.02874 0.519314 6.30774 0.500155 6.58774 0.500155H6.69774ZM15.6077 3.66031C15.1977 3.51931 14.7477 3.74031 14.5977 4.16031C14.4577 4.58031 14.6777 5.04031 15.0977 5.18931C15.7387 5.42931 16.1677 6.06031 16.1677 6.75931V6.79031C16.1487 7.01931 16.2177 7.24031 16.3577 7.41031C16.4977 7.58031 16.7077 7.67931 16.9277 7.70031C17.3377 7.68931 17.6877 7.36031 17.7177 6.93931V6.82031C17.7477 5.41931 16.8987 4.15031 15.6077 3.66031Z" fill="#FF3877"/>
</svg>
