<svg width="28" height="29" viewBox="0 0 28 29" fill="none" xmlns="http://www.w3.org/2000/svg">
<path fill-rule="evenodd" clip-rule="evenodd" d="M15.7894 19.388C17.3947 19.388 18.7014 20.6853 18.7014 22.28V26.3813C18.7014 26.724 18.976 26.9987 19.328 27.0067H21.8694C23.872 27.0067 25.5 25.3987 25.5 23.4227V11.7907C25.4907 11.1107 25.1667 10.4707 24.6107 10.0453L15.82 3.03467C14.64 2.10001 12.9894 2.10001 11.8054 3.03734L3.07469 10.0427C2.49735 10.4813 2.17335 11.1213 2.16669 11.8133V23.4227C2.16669 25.3987 3.79469 27.0067 5.79735 27.0067H8.36269C8.72402 27.0067 9.01735 26.72 9.01735 26.368C9.01735 26.2907 9.02669 26.2133 9.04269 26.14V22.28C9.04269 20.6947 10.3414 19.3987 11.9347 19.388H15.7894ZM21.8694 29.0067H19.304C17.8347 28.972 16.7014 27.8187 16.7014 26.3813V22.28C16.7014 21.788 16.292 21.388 15.7894 21.388H11.9414C11.4494 21.3907 11.0427 21.792 11.0427 22.28V26.368C11.0427 26.468 11.0294 26.564 11.0014 26.6547C10.8574 27.9747 9.72935 29.0067 8.36269 29.0067H5.79735C2.69202 29.0067 0.166687 26.5013 0.166687 23.4227V11.804C0.18002 10.4787 0.790687 9.26534 1.84535 8.46667L10.5587 1.47334C12.4774 -0.0466586 15.1507 -0.0466587 17.0654 1.47067L25.8414 8.47068C26.872 9.25601 27.4827 10.4667 27.5 11.776V23.4227C27.5 26.5013 24.9747 29.0067 21.8694 29.0067Z" fill="#C1C1C1"/>
</svg>
