<svg width="27" height="28" viewBox="0 0 27 28" fill="none" xmlns="http://www.w3.org/2000/svg">
<path d="M9.67968 25.6981V21.6211C9.67968 20.5804 10.5295 19.7367 11.5779 19.7367H15.4101C15.9136 19.7367 16.3964 19.9353 16.7524 20.2887C17.1083 20.6421 17.3083 21.1214 17.3083 21.6211V25.6981C17.3052 26.1308 17.4761 26.5468 17.7831 26.8539C18.0902 27.161 18.508 27.3337 18.9439 27.3337H21.5584C22.7795 27.3368 23.9517 26.8574 24.8162 26.0014C25.6808 25.1454 26.1666 23.983 26.1666 22.7708V11.1561C26.1666 10.1769 25.7294 9.24811 24.9728 8.61988L16.0787 1.56815C14.5315 0.331741 12.3148 0.371662 10.8138 1.66296L2.12266 8.61988C1.3303 9.2296 0.856716 10.1612 0.833313 11.1561V22.7589C0.833313 25.2855 2.89649 27.3337 5.44154 27.3337H7.99637C8.90162 27.3337 9.63731 26.6086 9.64387 25.71L9.67968 25.6981Z" fill="#CC2027"/>
</svg>
