<svg width="60" height="60" viewBox="0 0 60 60" fill="none" xmlns="http://www.w3.org/2000/svg">
<rect x="0.5" y="0.5" width="59" height="59" rx="7.5" fill="white" stroke="#DCDCDC"/>
<g clip-path="url(#clip0_1_13549)">
<path d="M38.7206 20.5508C38.319 20.5508 37.9923 20.8776 37.9923 21.2791C37.9923 21.6806 38.319 22.0074 38.7206 22.0074C39.1222 22.0074 39.4489 21.6807 39.4489 21.2791C39.4489 20.8775 39.1222 20.5508 38.7206 20.5508ZM30 23.5429C26.4397 23.5429 23.5432 26.4394 23.5432 29.9997C23.5432 33.5599 26.4397 36.4565 30 36.4565C33.5603 36.4565 36.4569 33.56 36.4569 29.9997C36.4569 26.4395 33.5603 23.5429 30 23.5429Z" fill="#CC2027"/>
<path d="M36.776 15H23.224C18.6893 15 15 18.6893 15 23.2241V36.776C15 41.3108 18.6893 45 23.224 45H36.776C41.3108 45 45 41.3107 45 36.776V23.2241C45 18.6893 41.3108 15 36.776 15ZM30 38.2284C25.4628 38.2284 21.7716 34.5372 21.7716 30C21.7716 25.4628 25.4629 21.7717 30 21.7717C34.5371 21.7717 38.2284 25.4629 38.2284 30C38.2284 34.5371 34.5371 38.2284 30 38.2284ZM38.7206 23.7795C37.3421 23.7795 36.2206 22.658 36.2206 21.2795C36.2206 19.901 37.3421 18.7795 38.7206 18.7795C40.099 18.7795 41.2205 19.901 41.2205 21.2794C41.2205 22.6579 40.099 23.7795 38.7206 23.7795Z" fill="#CC2027"/>
</g>
<defs>
<clipPath id="clip0_1_13549">
<rect width="30" height="30" fill="white" transform="translate(15 15)"/>
</clipPath>
</defs>
</svg>
