<svg width="163" height="153" viewBox="0 0 163 153" fill="none" xmlns="http://www.w3.org/2000/svg">
<path d="M91.9141 51.7291C91.9141 51.7291 97.4561 51.1349 99.5575 51.602C101.659 52.0691 107.925 55.0365 113.776 54.8751C119.627 54.7136 129.128 51.2517 131.769 49.1738C134.409 47.096 136.092 45.5161 136.092 45.5161C136.092 45.5161 146.05 39.0661 149.882 33.9968C153.713 28.9276 157.628 21.6602 158.105 19.5068C158.582 17.3534 159.328 12.5588 160.165 10.9412C161.003 9.32354 162.6 7.30063 161.765 7.01557C160.931 6.73051 157.199 6.86789 157.199 6.86789C157.199 6.86789 150.273 4.83811 145.181 4.5977C140.089 4.35728 132.71 6.13978 124.136 13.0671C115.562 19.9945 107.695 28.8108 106.507 30.9711C105.319 33.1314 101.813 40.543 101.24 42.7445C100.667 44.946 100.467 47.5012 98.4552 48.8304C97.6277 49.373 94.3108 47.7485 92.1201 49.2356C89.9294 50.7228 91.1655 51.6363 91.9141 51.7291Z" fill="#CC2027" stroke="#263238" stroke-miterlimit="10"/>
<path d="M159.798 9.57742C159.798 9.57742 147.094 16.8345 137.778 24.7441C129.981 31.4046 121.851 37.6645 113.419 43.4998C106.943 47.9131 100.502 50.5164 99.0769 50.774" stroke="#263238" stroke-miterlimit="10"/>
<path d="M99.5747 49.208C103.742 47.8229 107.737 45.9629 111.479 43.6648C117.835 39.7907 128.624 31.9669 132.212 28.8038" stroke="#263238" stroke-miterlimit="10"/>
<path d="M123.899 46.3196C119.435 45.4232 113.419 43.4999 113.419 43.4999" stroke="#263238" stroke-miterlimit="10"/>
<path d="M132.981 46.5226C132.981 46.5226 130.213 47.2369 125.808 46.6462C125.502 46.605 125.176 46.5535 124.836 46.4951" stroke="#263238" stroke-miterlimit="10"/>
<path d="M112.424 50.18C109.392 49.1015 106.315 48.2189 105.697 48.315" stroke="#263238" stroke-miterlimit="10"/>
<path d="M122.673 52.1962C122.673 52.1962 116.379 51.6123 113.138 50.4377" stroke="#263238" stroke-miterlimit="10"/>
<path d="M138.849 40.9926C135.785 41.4508 132.659 41.2328 129.688 40.3538C124.901 38.8907 122.106 38.1866 122.106 38.1866" stroke="#263238" stroke-miterlimit="10"/>
<path d="M131.165 32.8873C130.679 32.6605 130.167 32.4955 129.64 32.3962" stroke="#263238" stroke-miterlimit="10"/>
<path d="M146.022 36.82C146.022 36.82 142.98 36.3633 138.784 35.4291C136.52 34.8739 134.3 34.1518 132.143 33.2688" stroke="#263238" stroke-miterlimit="10"/>
<path d="M143.402 24.3673C141.641 24.257 140.257 24.1812 140.257 24.1812" stroke="#263238" stroke-miterlimit="10"/>
<path d="M152.591 27.4745C152.591 27.4745 147.44 24.6445 145.002 24.4762L144.515 24.4419" stroke="#263238" stroke-miterlimit="10"/>
<path d="M149.435 32.4374C149.435 32.4374 142.224 30.3149 139.35 29.4151C136.476 28.5152 135.333 28.6251 135.333 28.6251" stroke="#263238" stroke-miterlimit="10"/>
<path d="M154.4 22.1339C154.4 22.1339 148.587 19.407 146.091 19.3864" stroke="#263238" stroke-miterlimit="10"/>
<path d="M157.707 16.9722C157.707 16.9722 153.223 15.1141 151.602 15.4713" stroke="#263238" stroke-miterlimit="10"/>
<path d="M110.676 43.713C111.225 40.6005 111.469 37.4418 111.404 34.2819C111.26 29.35 112.468 26.702 113.093 25.4244" stroke="#263238" stroke-miterlimit="10"/>
<path d="M119.438 25.8157C119.535 25.0807 119.631 24.4007 119.723 23.8031C120.465 18.9948 122.714 16.3022 122.714 16.3022" stroke="#263238" stroke-miterlimit="10"/>
<path d="M118.065 38.9598C118.065 38.9598 118.645 32.3588 119.26 27.2551" stroke="#263238" stroke-miterlimit="10"/>
<path d="M131.144 11.8408C131.471 11.0124 131.904 10.2297 132.431 9.51224" stroke="#263238" stroke-miterlimit="10"/>
<path d="M126.55 32.9151C126.55 32.9151 127.034 29.6867 128.322 22.3506C128.798 19.4534 129.487 16.5951 130.382 13.7988" stroke="#263238" stroke-miterlimit="10"/>
<path d="M135.951 22.4192C136.164 21.0832 136.459 19.414 136.847 17.477C137.602 13.7818 139.031 10.2575 141.064 7.0808" stroke="#263238" stroke-miterlimit="10"/>
<path d="M135.46 25.9398C135.46 25.9398 135.546 25.1018 135.769 23.6009" stroke="#263238" stroke-miterlimit="10"/>
<path d="M143.361 17.8959C143.704 16.213 144.268 13.6372 144.834 11.0957C145.789 6.78882 146.681 5.85121 146.681 5.85121" stroke="#263238" stroke-miterlimit="10"/>
<path d="M142.959 19.8089C142.959 19.8089 143.039 19.4414 143.17 18.8163" stroke="#263238" stroke-miterlimit="10"/>
<path d="M151.094 14.3034C151.094 14.3034 151.41 12.5862 152.079 10.34C152.749 8.0939 153.312 7.20093 153.312 7.20093" stroke="#263238" stroke-miterlimit="10"/>
<path d="M146.173 17.676C146.173 17.676 147.426 14.0492 148.491 10.522C149.555 6.99478 150.294 6.25637 150.294 6.25637" stroke="#263238" stroke-miterlimit="10"/>
<path d="M106.356 40.3505C106.174 34.2474 107.177 31.9429 107.177 31.9429" stroke="#263238" stroke-miterlimit="10"/>
<path d="M105.144 47.0514C105.144 47.0514 106.311 46.55 106.37 41.7898" stroke="#263238" stroke-miterlimit="10"/>
<path d="M85.0742 78.511C85.0742 78.511 85.5447 72.954 86.4031 70.9826C87.2615 69.0112 91.3613 63.4268 92.3193 57.6397C93.2773 51.8526 91.6772 41.8788 90.1423 38.8874C88.6075 35.896 87.3714 33.9486 87.3714 33.9486C87.3714 33.9486 82.935 22.9342 78.6876 18.2187C74.4401 13.5032 68.0432 8.25871 66.0276 7.38636C64.012 6.514 59.4418 4.86545 58.0065 3.74237C56.5712 2.6193 54.9162 0.651339 54.4595 1.42753C54.0028 2.20372 53.4294 5.89236 53.4294 5.89236C53.4294 5.89236 50.1194 12.308 48.9176 17.2502C47.7158 22.1924 48.0626 29.7895 53.2303 39.5262C58.398 49.263 65.5606 58.6631 67.456 60.2396C69.3514 61.816 75.9578 66.6655 78.0111 67.6512C80.0645 68.6369 82.5333 69.3135 83.4535 71.5424C83.8312 72.456 81.6062 75.4062 82.6466 77.8413C83.687 80.2763 84.8442 79.2323 85.0742 78.511Z" fill="#CC2027" stroke="#263238" stroke-miterlimit="10"/>
<path d="M56.6021 3.83855C56.6021 3.83855 61.3165 17.6795 67.3048 28.3436C72.3606 37.2632 76.9608 46.4336 81.0876 55.8194C84.1779 63.0318 85.5205 69.8355 85.5033 71.2746" stroke="#263238" stroke-miterlimit="10"/>
<path d="M84.0579 70.5019C83.4911 66.1468 82.4254 61.8714 80.8817 57.7599C78.2859 50.7811 72.6409 38.702 70.2373 34.5738" stroke="#263238" stroke-miterlimit="10"/>
<path d="M85.8433 46.0724C84.1265 50.29 81.0876 55.8298 81.0876 55.8298" stroke="#263238" stroke-miterlimit="10"/>
<path d="M87.7697 37.1876C87.7697 37.1876 87.9448 40.0417 86.5267 44.2523C86.4306 44.5477 86.3173 44.8568 86.1833 45.1796" stroke="#263238" stroke-miterlimit="10"/>
<path d="M87.4504 58.0793C85.8194 60.8475 84.3601 63.705 84.3601 64.3267" stroke="#263238" stroke-miterlimit="10"/>
<path d="M91.3785 48.3973C91.3785 48.3973 89.6239 54.4626 87.8418 57.4232" stroke="#263238" stroke-miterlimit="10"/>
<path d="M83.4603 30.3801C83.327 33.4758 82.5183 36.5048 81.091 39.2548C78.7424 43.6785 77.52 46.2887 77.52 46.2887" stroke="#263238" stroke-miterlimit="10"/>
<path d="M74.0416 36.387C73.7255 36.8205 73.4659 37.2926 73.269 37.7917" stroke="#263238" stroke-miterlimit="10"/>
<path d="M80.7238 22.543C80.7238 22.543 79.6937 25.4451 77.9769 29.3879C77.0016 31.5052 75.8712 33.5474 74.5947 35.4979" stroke="#263238" stroke-miterlimit="10"/>
<path d="M68.0055 22.7629C67.5592 24.4801 67.2227 25.8195 67.2227 25.8195" stroke="#263238" stroke-miterlimit="10"/>
<path d="M72.799 14.3172C72.799 14.3172 69.046 18.8336 68.4142 21.1862C68.3729 21.3442 68.3317 21.5022 68.2871 21.6602" stroke="#263238" stroke-miterlimit="10"/>
<path d="M77.0738 18.3596C77.0738 18.3596 73.6195 25.0328 72.1911 27.6911C70.7627 30.3494 70.6528 31.469 70.6528 31.469" stroke="#263238" stroke-miterlimit="10"/>
<path d="M67.9026 11.5249C67.9026 11.5249 64.1256 16.7144 63.6243 19.1632" stroke="#263238" stroke-miterlimit="10"/>
<path d="M63.4628 7.30745C63.4628 7.30745 60.7879 11.3601 60.8326 13.0156" stroke="#263238" stroke-miterlimit="10"/>
<path d="M80.7822 58.5668C77.8316 57.4346 74.777 56.5948 71.6623 56.0597C66.7968 55.2629 64.4275 53.5731 63.2944 52.7179" stroke="#263238" stroke-miterlimit="10"/>
<path d="M64.8739 46.5566C64.17 46.3231 63.5176 46.0999 62.951 45.8972C58.3876 44.2555 56.1592 41.532 56.1592 41.532" stroke="#263238" stroke-miterlimit="10"/>
<path d="M77.5132 50.4069C77.5132 50.4069 71.1437 48.5798 66.2507 47.0068" stroke="#263238" stroke-miterlimit="10"/>
<path d="M53.3777 32.4203C52.6254 31.94 51.9397 31.3626 51.3381 30.7031" stroke="#263238" stroke-miterlimit="10"/>
<path d="M73.1939 40.9241C73.1939 40.9241 70.1036 39.8353 63.1572 37.1736C60.4033 36.1548 57.7291 34.9321 55.1567 33.5159" stroke="#263238" stroke-miterlimit="10"/>
<path d="M64.6748 29.697C63.4078 29.2333 61.8248 28.6289 59.9947 27.8767C56.5118 26.4343 53.3247 24.3619 50.5933 21.7633" stroke="#263238" stroke-miterlimit="10"/>
<path d="M68.0398 30.8472C68.0398 30.8472 67.2329 30.6034 65.801 30.0985" stroke="#263238" stroke-miterlimit="10"/>
<path d="M61.6462 21.5606C60.0599 20.8737 57.6357 19.8433 55.2493 18.813C51.2044 17.0545 50.4421 16.0001 50.4421 16.0001" stroke="#263238" stroke-miterlimit="10"/>
<path d="M63.4454 22.3159L62.5115 21.9243" stroke="#263238" stroke-miterlimit="10"/>
<path d="M59.5896 13.287C59.5896 13.287 57.9689 12.6516 55.8846 11.5698C53.8004 10.4879 53.0381 9.76321 53.0381 9.76321" stroke="#263238" stroke-miterlimit="10"/>
<path d="M61.9623 18.7579C61.9623 18.7579 58.6419 16.838 55.3799 15.1242C52.1179 13.4104 51.5376 12.5415 51.5376 12.5415" stroke="#263238" stroke-miterlimit="10"/>
<path d="M76.6513 62.1664C70.6252 61.1875 68.5547 59.7622 68.5547 59.7622" stroke="#263238" stroke-miterlimit="10"/>
<path d="M83.0004 64.6291C83.0004 64.6291 82.7291 63.3893 78.0662 62.4276" stroke="#263238" stroke-miterlimit="10"/>
<path d="M117.777 33.4094C117.777 33.4094 145.888 19.8466 151.883 37.6613C157.879 55.4759 145.758 76.0416 136.157 80.0428C126.557 84.0439 113.811 74.9666 113.811 74.9666L116.626 66.7754C116.626 66.7754 128.857 71.2814 136.123 67.1463C143.389 63.0112 147.773 41.24 137.747 39.1381C127.721 37.0362 115.521 45.4301 115.521 45.4301L117.777 33.4094Z" fill="white" stroke="#263238" stroke-linecap="round" stroke-linejoin="round"/>
<path opacity="0.24" d="M136.933 38.2866C138.993 38.6026 141.631 40.2889 142.575 42.0233C141.716 39.4509 140.346 36.4973 137.081 35.9821C129.056 34.7113 118.505 39.2448 115.256 41.2368L114.817 43.5826C115.212 44.0085 127.504 36.8441 136.933 38.2866Z" fill="black"/>
<path opacity="0.24" d="M151.296 37.6032C151.065 36.9181 150.786 36.2502 150.462 35.6043C150.51 35.7314 150.558 35.855 150.602 35.9821C156.594 53.8002 144.37 72.5765 134.77 76.5777C126.793 79.8988 116.647 74.1735 113.443 72.1575L113.117 73.102C113.117 73.102 125.904 83.22 135.505 79.2222C145.105 75.2245 157.288 55.4178 151.296 37.6032Z" fill="black"/>
<g opacity="0.24">
<path d="M115.521 45.4299C118.039 43.7772 120.71 42.3706 123.497 41.2296C123.562 37.1391 123.497 33.6497 123.394 31.1665C121.483 31.813 119.608 32.5616 117.777 33.4092L115.521 45.4299Z" fill="black"/>
<path d="M120.822 67.957C119.402 67.6404 118.001 67.2413 116.626 66.7618L113.811 74.9668C115.212 75.9253 116.676 76.7893 118.192 77.553C119.28 74.416 120.159 71.2104 120.822 67.957Z" fill="black"/>
</g>
<path d="M18.4436 28.9447C18.7595 58.1378 17.1869 97.0539 68.7161 97.0539C122.7 97.0367 118.676 58.1378 118.989 28.9447H18.4436Z" fill="white" stroke="#263238" stroke-linecap="round" stroke-linejoin="round"/>
<g opacity="0.24">
<path d="M113.605 28.9447C113.419 52.5568 115.517 82.2204 90.2556 92.5994C119.442 82.9176 116.771 52.6632 117.038 28.9447H113.605Z" fill="black"/>
</g>
<path d="M18.4988 35.01V35.6969H118.965V35.01H18.4988Z" fill="#263238" stroke="#263238" stroke-miterlimit="10"/>
<path d="M118.941 41.7174C118.958 40.244 118.962 38.7775 118.965 37.3247H18.5195C18.5401 38.7763 18.5699 40.2405 18.6088 41.7174H118.941Z" fill="#263238" stroke="#263238" stroke-miterlimit="10"/>
<path d="M105.419 97.1257C105.419 97.1257 98.627 94.6666 96.4088 92.9803C94.1907 91.294 88.374 84.5624 81.4448 81.4542C74.5157 78.346 61.6256 76.7902 57.4674 77.5664C53.3093 78.3426 50.5383 79.1222 50.5383 79.1222C50.5383 79.1222 35.5709 80.5475 28.5044 83.9133C21.4378 87.2791 13.1215 92.9803 11.4561 95.0547C9.79079 97.1292 6.46699 101.924 4.66774 103.215C2.86849 104.506 -0.0467063 105.805 0.787678 106.581C1.62206 107.357 6.05151 109.311 6.05151 109.311C6.05151 109.311 13.1215 115.401 18.9416 118.509C24.7616 121.617 34.3244 123.819 47.9046 121.098C61.4849 118.378 75.2058 113.199 77.7021 111.513C80.1984 109.826 88.0959 103.744 89.8986 101.67C91.7013 99.5951 93.2395 96.9334 96.2715 96.6174C97.5179 96.4903 100.567 100.117 103.894 99.7256C107.222 99.3341 106.25 97.634 105.419 97.1257Z" fill="#CC2027" stroke="#263238" stroke-miterlimit="10"/>
<path d="M100.626 97.0605C100.489 96.4022 100.385 95.7373 100.316 95.0685C98.7679 94.3816 97.2571 93.6226 96.409 92.9803C94.1942 91.2974 88.3742 84.5624 81.445 81.4542C74.5158 78.346 61.6258 76.7902 57.4676 77.5664C53.3094 78.3426 50.5384 79.1222 50.5384 79.1222C50.5384 79.1222 38.6888 80.2521 31.0969 82.8726C34.3212 85.6992 38.5171 88.4811 43.9286 90.9746C56.386 96.717 70.5843 100.608 73.6574 100.735C76.7305 100.862 86.9698 100.667 89.7579 100.086C90.3417 99.966 90.9357 99.8184 91.5297 99.6741C92.783 98.1767 94.1668 96.8269 96.2716 96.6071C97.2125 96.511 99.1834 98.551 101.522 99.3925C101.15 98.6451 100.85 97.8643 100.626 97.0605Z" fill="#263238" stroke="#263238" stroke-miterlimit="10"/>
<path d="M4.38965 104.898C4.38965 104.898 22.959 104.122 37.9264 100.753C52.8938 97.3834 66.1993 95.1819 76.0403 94.0177C85.8812 92.8534 94.7504 93.6296 96.5531 94.1482" stroke="#263238" stroke-miterlimit="10"/>
<path d="M95.1625 95.5738C89.6143 94.744 83.9917 94.5263 78.3959 94.9247C68.9704 95.5738 52.3411 98.0329 46.521 99.4582" stroke="#263238" stroke-miterlimit="10"/>
<path d="M65.2173 85.0815C69.9867 88.5572 76.0368 94.0111 76.0368 94.0111" stroke="#263238" stroke-miterlimit="10"/>
<path d="M54.6965 79.775C54.6965 79.775 58.2985 80.5512 63.1503 83.6594C63.4936 83.8758 63.837 84.1162 64.2113 84.3703" stroke="#263238" stroke-miterlimit="10"/>
<path d="M80.6243 87.331C83.6184 90.1988 86.7706 92.8846 87.5397 93.125" stroke="#263238" stroke-miterlimit="10"/>
<path d="M69.6812 79.3801C69.6812 79.3801 76.7477 83.5255 79.9376 86.6337" stroke="#263238" stroke-miterlimit="10"/>
<path d="M44.9963 82.4915C48.8196 83.7155 52.3553 85.7017 55.3901 88.3301C60.2384 92.6026 63.1502 94.9346 63.1502 94.9346" stroke="#263238" stroke-miterlimit="10"/>
<path d="M49.8379 95.6078C50.6139 96.3943 51.153 96.9164 51.3693 96.9816" stroke="#263238" stroke-miterlimit="10"/>
<path d="M34.4619 83.007C34.4619 83.007 37.7892 85.212 42.222 88.5778C44.5813 90.4441 46.8082 92.4718 48.8868 94.6465" stroke="#263238" stroke-miterlimit="10"/>
<path d="M31.1519 98.0086C33.1571 99.118 34.7401 99.9766 34.7401 99.9766" stroke="#263238" stroke-miterlimit="10"/>
<path d="M21.9907 89.4842C21.9907 89.4842 26.5644 95.4431 29.3354 96.9955L29.8882 97.308" stroke="#263238" stroke-miterlimit="10"/>
<path d="M28.2261 85.8573C28.2261 85.8573 35.5707 92.2042 38.4825 94.7869C41.3942 97.3696 42.778 97.8779 42.778 97.8779" stroke="#263238" stroke-miterlimit="10"/>
<path d="M17.1458 94.2756C17.1458 94.2756 22.5504 100.495 25.4621 101.921" stroke="#263238" stroke-miterlimit="10"/>
<path d="M10.6216 98.033C10.6216 98.033 14.9171 102.566 16.9979 103.085" stroke="#263238" stroke-miterlimit="10"/>
<path d="M79.364 95.3126C77.1283 98.3843 75.2235 101.684 73.6812 105.156C71.3257 110.596 68.5547 112.798 67.1572 113.835" stroke="#263238" stroke-miterlimit="10"/>
<path d="M59.9396 109.864C59.4485 110.61 58.9884 111.296 58.5661 111.891C55.2388 116.699 51.2214 118.368 51.2214 118.368" stroke="#263238" stroke-miterlimit="10"/>
<path d="M68.2767 96.3496C68.2767 96.3496 64.2147 103.198 60.884 108.401" stroke="#263238" stroke-miterlimit="10"/>
<path d="M39.1007 118.502C38.2865 119.224 37.3787 119.833 36.4019 120.312" stroke="#263238" stroke-miterlimit="10"/>
<path d="M55.2597 98.1633C55.2597 98.1633 53.045 101.402 47.7777 108.656C45.7299 111.543 43.4554 114.263 40.9756 116.788" stroke="#263238" stroke-miterlimit="10"/>
<path d="M38.8741 104.304C37.9401 105.633 36.7418 107.285 35.2928 109.171C32.4881 112.786 29.0054 115.819 25.0398 118.1" stroke="#263238" stroke-miterlimit="10"/>
<path d="M41.2537 100.753C41.2537 100.753 40.7215 101.615 39.6914 103.123" stroke="#263238" stroke-miterlimit="10"/>
<path d="M27.8863 105.067C26.609 106.698 24.6449 109.188 22.6843 111.633C19.3571 115.779 17.8325 116.297 17.8325 116.297" stroke="#263238" stroke-miterlimit="10"/>
<path d="M29.3352 103.215L28.5867 104.16" stroke="#263238" stroke-miterlimit="10"/>
<path d="M17.0015 104.641C16.0031 105.946 14.9384 107.199 13.8116 108.394C11.8715 110.455 10.7625 111.115 10.7625 111.115" stroke="#263238" stroke-miterlimit="10"/>
<path d="M24.4834 103.734C24.4834 103.734 21.1596 106.969 18.1105 110.208C15.0614 113.447 13.8115 113.835 13.8115 113.835" stroke="#263238" stroke-miterlimit="10"/>
<path d="M82.6913 101.412C79.7796 108.147 77.4241 110.088 77.4241 110.088" stroke="#263238" stroke-miterlimit="10"/>
<path d="M87.5362 94.7938C87.5362 94.7938 85.9121 94.6873 83.4158 99.8287" stroke="#263238" stroke-miterlimit="10"/>
<path d="M106.82 101.168C106.82 101.168 102.723 95.5426 101.917 92.9805C101.11 90.4184 100.409 81.7841 96.5909 75.5505C92.7727 69.3169 83.1034 61.2012 79.2062 59.6351C75.309 58.069 72.5586 57.231 72.5586 57.231C72.5586 57.231 59.3801 50.4788 51.5032 49.5034C43.6264 48.528 33.3322 48.8165 30.702 49.6373C28.0718 50.4582 22.4268 52.646 20.1572 52.7559C17.8875 52.8658 14.7045 52.3918 14.9174 53.4737C15.1303 54.5555 17.6025 58.5052 17.6025 58.5052C17.6025 58.5052 19.728 67.2665 22.6397 72.906C25.5515 78.5454 32.0789 85.4418 44.914 90.4218C57.7491 95.4018 72.1912 98.3932 75.2678 98.3211C78.3443 98.249 88.5458 97.4316 91.2859 96.6829C94.026 95.9341 96.9137 94.5535 99.6023 95.9032C100.708 96.4562 101.017 101.055 103.991 102.504C106.964 103.954 107.191 102.037 106.82 101.168Z" fill="#CC2027" stroke="#263238" stroke-miterlimit="10"/>
<path d="M18.9072 53.9961C18.9072 53.9961 34.6713 63.2039 49.0412 68.3659C63.4112 73.5279 75.7038 78.7724 84.5146 83.0312C93.3254 87.2899 100.155 92.6305 101.34 94.0215" stroke="#263238" stroke-miterlimit="10"/>
<path d="M99.3171 94.4506C95.2218 90.8046 90.7203 87.6423 85.9017 85.0264C77.7502 80.5616 62.5527 73.7716 56.9043 71.8586" stroke="#263238" stroke-miterlimit="10"/>
<path d="M81.0122 69.9354C82.8321 75.3241 84.5008 83.0311 84.5008 83.0311" stroke="#263238" stroke-miterlimit="10"/>
<path d="M75.5869 59.9786C75.5869 59.9786 78.0832 62.5304 80.1915 67.6615C80.3391 68.0222 80.4868 68.4068 80.6344 68.8087" stroke="#263238" stroke-miterlimit="10"/>
<path d="M92.3435 79.9467C93.0714 83.8929 94.0329 87.7773 94.5239 88.3818" stroke="#263238" stroke-miterlimit="10"/>
<path d="M88.1475 67.5964C88.1475 67.5964 91.4541 74.7573 92.1889 79.0092" stroke="#263238" stroke-miterlimit="10"/>
<path d="M65.9487 57.0763C68.3519 60.1044 70.0651 63.6208 70.9688 67.3798C72.3697 73.4725 73.3483 76.9345 73.3483 76.9345" stroke="#263238" stroke-miterlimit="10"/>
<path d="M61.969 70.4471C62.1338 71.5049 62.2609 72.2227 62.3913 72.4013" stroke="#263238" stroke-miterlimit="10"/>
<path d="M56.9763 51.9177C56.9763 51.9177 58.3807 55.493 59.9877 60.6207C60.9079 63.5537 61.4332 66.8028 61.7903 69.152" stroke="#263238" stroke-miterlimit="10"/>
<path d="M45.127 62.5132C46.1056 64.4914 46.8884 66.0369 46.8884 66.0369" stroke="#263238" stroke-miterlimit="10"/>
<path d="M42.7576 50.6371C42.7576 50.6371 42.9087 57.9697 44.2444 60.7173L44.5156 61.2668" stroke="#263238" stroke-miterlimit="10"/>
<path d="M50.1091 50.9561C50.1091 50.9561 52.3033 60.0781 53.1273 63.753C53.9514 67.4279 54.7789 68.5922 54.7789 68.5922" stroke="#263238" stroke-miterlimit="10"/>
<path d="M35.8557 52.0106C35.8557 52.0106 36.5424 59.9958 38.0636 62.7125" stroke="#263238" stroke-miterlimit="10"/>
<path d="M28.2092 51.6502C28.2092 51.6502 28.9955 57.6606 30.393 59.2061" stroke="#263238" stroke-miterlimit="10"/>
<path d="M86.4648 85.8607C82.7592 87.2072 79.1941 88.9131 75.8204 90.954C70.5806 94.1824 66.9615 94.5259 65.176 94.6461" stroke="#263238" stroke-miterlimit="10"/>
<path d="M61.636 87.5401C60.781 87.8836 59.9844 88.227 59.284 88.4881C53.6356 90.6724 49.3022 89.9271 49.3022 89.9271" stroke="#263238" stroke-miterlimit="10"/>
<path d="M76.7065 80.8329C76.7065 80.8329 69.2039 84.3223 63.3152 86.8398" stroke="#263238" stroke-miterlimit="10"/>
<path d="M39.231 83.6043C38.1327 83.7693 37.0175 83.7891 35.9141 83.6629" stroke="#263238" stroke-miterlimit="10"/>
<path d="M64.8739 75.4199C64.8739 75.4199 61.0968 76.9105 52.3444 80.0908C48.9122 81.3815 45.3886 82.4147 41.803 83.1818" stroke="#263238" stroke-miterlimit="10"/>
<path d="M47.6642 71.7934C46.0881 72.3944 44.1 73.1191 41.7617 73.9056C37.2963 75.3936 32.5947 76.0445 27.8931 75.8255" stroke="#263238" stroke-miterlimit="10"/>
<path d="M51.7813 70.1309C51.7813 70.1309 50.8198 70.5602 49.0583 71.254" stroke="#263238" stroke-miterlimit="10"/>
<path d="M38.1565 66.5935C36.0963 67.2597 32.9819 68.2695 29.8848 69.2414C24.6278 70.8934 23.0586 70.5122 23.0586 70.5122" stroke="#263238" stroke-miterlimit="10"/>
<path d="M40.4708 65.8376L39.2725 66.2291" stroke="#263238" stroke-miterlimit="10"/>
<path d="M29.4487 60.4699C29.4487 60.4699 27.3885 61.1945 24.5454 61.8746C21.7023 62.5546 20.3838 62.4962 20.3838 62.4962" stroke="#263238" stroke-miterlimit="10"/>
<path d="M36.1615 63.6912C36.1615 63.6912 31.4574 64.5945 26.9833 65.6454C22.5092 66.6964 21.2422 66.3529 21.2422 66.3529" stroke="#263238" stroke-miterlimit="10"/>
<path d="M85.5103 92.637C79.0241 96.6382 75.896 96.9919 75.896 96.9919" stroke="#263238" stroke-miterlimit="10"/>
<path d="M93.5142 89.7694C93.5142 89.7694 92.2403 88.818 87.0588 91.7236" stroke="#263238" stroke-miterlimit="10"/>
<path d="M69.523 103.641C69.523 103.641 65.3236 105.599 63.6583 108.927C61.993 112.255 62.3329 118.217 66.1546 121.436C69.9763 124.654 77.0771 127.92 86.5507 127.618C96.0242 127.315 102.188 120.783 103.163 116.507C104.138 112.231 102.071 107.44 96.4946 104.081C90.9183 100.722 86.9043 101.062 81.2319 101.072C75.5594 101.083 69.523 103.641 69.523 103.641Z" fill="#737373" stroke="#263238" stroke-miterlimit="10"/>
<path d="M20.6517 108.395C20.6517 108.395 16.7682 110.926 15.5904 114.464C14.4127 118.001 15.5904 123.847 19.8276 126.484C24.0647 129.122 31.557 131.361 40.8966 129.737C50.2363 128.112 55.4108 120.762 55.7714 116.39C56.1319 112.018 53.4124 107.571 47.4172 105.032C41.422 102.494 37.4973 103.398 31.8832 104.212C26.2692 105.026 20.6517 108.395 20.6517 108.395Z" fill="#737373" stroke="#263238" stroke-miterlimit="10"/>
<path d="M141.318 107.529C141.318 107.529 143.804 108.258 145.727 111.029C146.636 112.374 147.221 113.911 147.435 115.52C147.65 117.129 147.488 118.766 146.963 120.302C145.933 123.204 140.854 128.432 136.154 130.829C131.453 133.226 125.705 133.511 121.076 131.049C116.448 128.586 115.201 122.906 114.834 122.081C114.466 121.257 113.309 115.803 116.207 110.995C119.105 106.187 121.962 103.264 126.587 101.866C131.213 100.468 135.587 101.251 137.788 103.339C139.989 105.427 140.336 107.33 140.336 107.33L141.318 107.529Z" fill="#8C8C8C"/>
<path d="M114.714 114.666L115.565 112.217C115.685 111.953 115.819 111.688 115.964 111.427C115.665 112.801 115.246 115.167 115.373 117.249C115.569 120.408 116.245 121.415 119.995 125.265C123.744 129.115 124.967 128.95 126.78 129.554C128.593 130.159 133.087 129.898 137.719 128.012C140.502 126.869 142.922 124.991 144.721 122.579L147.378 118.667C147.286 119.222 147.147 119.767 146.963 120.298C145.933 123.201 140.854 128.428 136.154 130.825C131.453 133.222 125.705 133.507 121.076 131.045C116.448 128.582 115.201 122.902 114.834 122.077C114.556 121.463 113.842 118.241 114.714 114.666Z" fill="#616161"/>
<path d="M138.87 107.896C138.87 107.896 138.118 107.604 135.882 110.52C133.647 113.436 129.949 115.232 128.091 117.619C126.234 120.006 124.589 122.369 123.971 123.324C123.353 124.279 122.281 124.931 121.766 125.773C121.251 126.614 120.911 127.895 120.602 127.761C120.293 127.627 121.835 125.11 121.79 124.354C121.746 123.599 121.011 121.95 121.354 121.284C121.698 120.618 123.174 119.704 122.972 119.388C122.769 119.072 119.452 117.767 120.942 118.083C122.433 118.399 123.961 119.189 124.355 118.595C124.75 118.001 125.042 116.641 125.042 116.641C125.042 116.641 124.551 116.4 125.307 116.019C126.062 115.638 127.054 114.151 127.054 114.151C127.054 114.151 129.561 111.561 131.236 110.373C132.912 109.184 133.695 108.655 134.557 108.429C135.419 108.202 135.309 108.384 136.109 107.807C136.909 107.23 136.614 106.694 137.287 107.041C137.96 107.388 139.986 106.777 138.87 107.896Z" fill="#263238" stroke="#263238" stroke-miterlimit="10"/>
<path d="M139.931 127.016C139.931 127.016 136.734 128.373 134.166 129.324C131.597 130.276 126.742 129.527 124.967 128.95" stroke="#263238" stroke-miterlimit="10"/>
<path d="M123.401 128.349C123.401 128.349 121.942 127.569 121.567 127.085" stroke="#263238" stroke-miterlimit="10"/>
<path d="M120.41 125.825C120.41 125.825 118.377 123.908 117.454 122.493C116.53 121.078 115.692 120.645 115.373 117.249C115.054 113.852 116.005 112.303 116.005 112.303" stroke="#263238" stroke-miterlimit="10"/>
<path d="M141.318 107.529C141.318 107.529 143.804 108.258 145.727 111.029C146.636 112.374 147.221 113.911 147.435 115.52C147.65 117.129 147.488 118.766 146.963 120.302C145.933 123.204 140.854 128.432 136.154 130.829C131.453 133.226 125.705 133.511 121.076 131.049C116.448 128.586 115.201 122.906 114.834 122.081C114.466 121.257 113.309 115.803 116.207 110.995C119.105 106.187 121.962 103.264 126.587 101.866C131.213 100.468 135.587 101.251 137.788 103.339C139.989 105.427 140.336 107.33 140.336 107.33L141.318 107.529Z" stroke="#263238" stroke-miterlimit="10"/>
<path d="M130.742 127.473C130.704 127.638 130.969 127.837 131.329 127.913C131.69 127.988 132.016 127.913 132.047 127.748C132.078 127.583 131.82 127.384 131.456 127.308C131.092 127.233 130.776 127.305 130.742 127.473Z" stroke="#263238" stroke-miterlimit="10"/>
<path d="M135.639 103.722C135.674 103.555 135.409 103.357 135.047 103.281C134.685 103.205 134.363 103.279 134.328 103.446C134.293 103.613 134.558 103.81 134.92 103.886C135.282 103.962 135.604 103.889 135.639 103.722Z" stroke="#263238" stroke-miterlimit="10"/>
<path d="M130.732 102.508C130.656 102.851 131.048 103.243 131.604 103.359C132.16 103.476 132.672 103.284 132.744 102.93C132.816 102.576 132.428 102.195 131.872 102.078C131.315 101.962 130.8 102.154 130.732 102.508Z" stroke="#263238" stroke-miterlimit="10"/>
<path d="M89.4041 93.8256C89.4041 93.8256 84.8064 94.4198 82.214 97.0884C79.6215 99.757 78.1382 105.541 80.8061 109.765C83.4741 113.989 89.253 119.272 98.3694 121.848C107.486 124.423 115.342 120.069 117.564 116.287C119.785 112.506 119.281 107.32 114.971 102.426C110.662 97.5314 106.73 96.6419 101.336 94.9384C95.9418 93.2349 89.4041 93.8256 89.4041 93.8256Z" fill="#8C8C8C"/>
<path d="M117.564 116.287C118.72 114.295 119.124 111.954 118.7 109.689C117.038 111.259 112.266 114.336 100.457 114.206C91.4335 114.103 84.003 108.096 79.4774 103.27C79.1608 105.524 79.6301 107.817 80.8062 109.765C83.4742 113.989 89.2531 119.255 98.3695 121.848C107.486 124.441 115.349 120.068 117.564 116.287Z" fill="#616161"/>
<path d="M89.4041 93.8256C89.4041 93.8256 84.8064 94.4198 82.214 97.0884C79.6215 99.757 78.1382 105.541 80.8061 109.765C83.4741 113.989 89.253 119.272 98.3694 121.848C107.486 124.423 115.342 120.069 117.564 116.287C119.785 112.506 119.281 107.32 114.971 102.426C110.662 97.5314 106.73 96.6419 101.336 94.9384C95.9418 93.2349 89.4041 93.8256 89.4041 93.8256Z" stroke="#263238" stroke-miterlimit="10"/>
<path d="M89.8987 95.9583C89.8987 96.185 89.624 96.3704 89.2841 96.3704C88.9441 96.3704 88.666 96.185 88.666 95.9583C88.666 95.7316 88.9441 95.5462 89.2841 95.5462C89.624 95.5462 89.8987 95.7316 89.8987 95.9583Z" stroke="#263238" stroke-miterlimit="10"/>
<path d="M94.8329 97.3767C94.8329 97.6721 94.4346 97.9125 93.9435 97.9125C93.4525 97.9125 93.0508 97.6721 93.0508 97.3767C93.0508 97.0813 93.4491 96.8409 93.9435 96.8409C94.438 96.8409 94.8329 97.0779 94.8329 97.3767Z" stroke="#263238" stroke-miterlimit="10"/>
<path d="M91.2376 98.4242C91.2376 98.6509 90.9595 98.8364 90.6195 98.8364C90.2796 98.8364 90.0015 98.6509 90.0015 98.4242C90.0015 98.1976 90.2796 98.0155 90.6195 98.0155C90.9595 98.0155 91.2376 98.1976 91.2376 98.4242Z" stroke="#263238" stroke-miterlimit="10"/>
<path d="M126.725 125.842C126.725 125.842 125.53 124.516 120.033 122.462C114.535 120.408 108.039 119.546 106.25 119.746C104.461 119.945 103.335 119.546 101.347 120.144C99.3585 120.742 98.4967 120.872 98.2323 121.202C97.9679 121.531 97.2365 122.198 97.1713 122.397C97.106 122.596 94.0569 123.259 93.9917 128.826C93.9264 134.394 97.1713 138.302 103.335 141.218C109.498 144.134 112.544 145.659 119.236 145.459C125.928 145.26 129.111 141.815 131.165 139.03C133.218 136.245 132.689 131.543 131.165 129.355C130.134 127.976 128.732 126.918 127.123 126.305L126.725 125.842Z" fill="#8C8C8C"/>
<path d="M131.831 133.93C131.638 136.482 129.918 138.456 128.452 139.476C126.986 140.496 123.178 141.252 122.216 141.324C121.255 141.396 114.631 141.07 111.702 140.562C108.774 140.053 105.714 138.436 103.225 137.436C100.735 136.437 97.5523 134.057 95.6397 131.254C94.3487 129.355 94.3658 126.879 94.5135 125.471C94.1557 126.553 93.9782 127.686 93.9881 128.826C93.9195 134.393 97.1677 138.302 103.331 141.218C109.495 144.134 112.54 145.658 119.233 145.459C125.925 145.26 129.108 141.815 131.161 139.03C132.73 136.901 132.789 133.651 132.047 131.261C131.996 131.938 131.927 132.841 131.831 133.93Z" fill="#616161"/>
<path d="M98.761 123.654C98.761 123.654 101.611 125.715 102.074 126.041C102.538 126.367 104.327 127.102 105.852 127.83C107.376 128.558 110.954 129.891 114.796 131.079C118.639 132.268 123.212 134.06 124.009 134.325C124.805 134.589 125.798 135.252 125.928 136.183C126.059 137.114 123.81 139.762 124.737 139.961C125.664 140.16 126.855 138.501 127.055 137.838C127.254 137.176 126.855 136.513 127.453 136.313C128.05 136.114 129.376 136.777 129.376 136.313C129.376 135.85 127.659 134.857 127.659 134.857C126.364 134.016 125.014 133.263 123.617 132.604C121.695 131.742 120.833 131.941 118.515 130.681C116.197 129.42 114.202 128.029 112.214 127.171C110.739 126.59 109.205 126.167 107.64 125.91C107.376 125.845 108.633 126.972 106.579 125.316C104.526 123.661 102.009 123.657 101.347 123.527C100.684 123.396 97.0373 121.933 98.761 123.654Z" fill="#263238" stroke="#263238" stroke-miterlimit="10"/>
<path d="M94.6542 128.359C94.6542 128.359 93.9915 131.145 97.8338 133.854C101.676 136.564 103.4 137.766 105.731 138.429" stroke="#263238" stroke-miterlimit="10"/>
<path d="M106.978 138.9C109.617 139.961 112.377 140.696 115.195 141.087C119.5 141.616 124.809 141.019 124.809 141.019" stroke="#263238" stroke-miterlimit="10"/>
<path d="M127.123 140.092C127.911 139.787 128.647 139.363 129.307 138.835C130.392 137.947 131.179 136.748 131.563 135.4" stroke="#263238" stroke-miterlimit="10"/>
<path d="M126.725 125.842C126.725 125.842 125.53 124.516 120.033 122.462C114.535 120.408 108.039 119.546 106.25 119.746C104.461 119.945 103.335 119.546 101.347 120.144C99.3585 120.742 98.4967 120.872 98.2323 121.202C97.9679 121.531 97.2365 122.198 97.1713 122.397C97.106 122.596 94.0569 123.259 93.9917 128.826C93.9264 134.394 97.1713 138.302 103.335 141.218C109.498 144.134 112.544 145.659 119.236 145.459C125.928 145.26 129.111 141.815 131.165 139.03C133.218 136.245 132.689 131.543 131.165 129.355C130.134 127.976 128.732 126.918 127.123 126.305L126.725 125.842Z" stroke="#263238" stroke-miterlimit="10"/>
<path d="M103.39 134.854C103.814 134.854 104.159 134.623 104.159 134.339C104.159 134.054 103.814 133.824 103.39 133.824C102.965 133.824 102.62 134.054 102.62 134.339C102.62 134.623 102.965 134.854 103.39 134.854Z" stroke="#263238" stroke-miterlimit="10"/>
<path d="M107.036 136.499C107.036 136.667 106.806 136.808 106.524 136.808C106.243 136.808 106.009 136.667 106.009 136.499C106.009 136.331 106.239 136.19 106.524 136.19C106.809 136.19 107.036 136.327 107.036 136.499Z" stroke="#263238" stroke-miterlimit="10"/>
<path d="M114.182 135.678C114.381 135.678 114.542 135.586 114.542 135.472C114.542 135.358 114.381 135.266 114.182 135.266C113.982 135.266 113.821 135.358 113.821 135.472C113.821 135.586 113.982 135.678 114.182 135.678Z" stroke="#263238" stroke-miterlimit="10"/>
<path d="M128.826 128.685C128.826 128.857 128.527 128.994 128.157 128.994C127.786 128.994 127.49 128.857 127.49 128.685C127.49 128.514 127.789 128.376 128.157 128.376C128.524 128.376 128.826 128.514 128.826 128.685Z" stroke="#263238" stroke-miterlimit="10"/>
<path d="M63.892 115.923C63.7401 115.734 63.5686 115.561 63.3804 115.408C62.0825 114.323 56.7946 110.346 49.5461 110.84C42.1362 111.348 34.225 113.907 32.103 118.856C29.981 123.805 32.5151 130.726 36.9857 133.023C45.3776 137.341 50.7204 135.005 56.6161 132.766C66.9515 128.837 67.3292 120.254 63.892 115.923Z" fill="#8C8C8C"/>
<path d="M31.7973 121.913C31.7973 121.913 33.0712 124.973 33.7716 125.8C34.4721 126.628 37.4697 128.479 38.1702 128.861C38.8707 129.242 42.7438 130.647 43.5473 130.712C44.3508 130.777 50.2155 129.681 50.2155 129.681C50.2155 129.681 54.0407 129.238 54.9334 128.854C55.8262 128.469 58.501 127.387 58.501 127.387C59.4168 126.913 60.2889 126.359 61.1072 125.732C62.0068 124.966 64.0224 122.95 64.0224 122.95C64.0224 122.95 63.6 126.687 62.5802 128.727C61.5604 130.767 55.5686 133.191 55.1257 133.38C54.6828 133.569 50.2808 135.355 46.6479 135.293C43.0151 135.232 38.9874 134.383 36.9856 133.009C34.9837 131.636 32.6248 128.658 32.1166 127.191C31.6084 125.725 31.7973 121.913 31.7973 121.913Z" fill="#616161"/>
<path d="M34.9461 122.823C34.9461 122.823 38.0055 122.823 38.9463 122.194C39.8871 121.566 41.3774 117.729 44.5157 116.861C47.6541 115.992 50.6346 116.153 53.4433 115.449C56.2521 114.745 58.2299 113.642 58.1509 114.583C58.0719 115.525 58.9372 114.192 58.0719 115.528C57.2066 116.864 56.6607 116.703 51.1702 118.193C45.6798 119.684 44.3441 120.47 41.6005 122.194C38.857 123.918 38.9326 124.942 37.0509 125.021C35.1693 125.1 32.4223 123.06 32.6558 122.04C32.8893 121.02 34.2387 122.119 34.9461 122.823Z" fill="#263238" stroke="#263238" stroke-miterlimit="10"/>
<path d="M32.7483 124.018C32.7483 124.018 34.005 126.865 35.9931 127.727C37.9812 128.59 39.9041 130.513 43.5472 130.712C47.1904 130.911 50.4386 129.452 52.2276 129.187C54.0165 128.923 54.6311 129.053 55.4758 128.59C56.3205 128.126 57.0004 127.597 57.4639 127.329" stroke="#263238" stroke-miterlimit="10"/>
<path d="M58.9199 126.401C58.9199 126.401 60.2453 126.47 61.1072 125.739C61.6739 125.244 62.1851 124.689 62.6317 124.083L64.0224 122.957L65.0834 121.696" stroke="#263238" stroke-miterlimit="10"/>
<path d="M63.892 115.923C63.7401 115.734 63.5686 115.561 63.3804 115.408C62.0825 114.323 56.7946 110.346 49.5461 110.84C42.1362 111.348 34.225 113.907 32.103 118.856C29.981 123.805 32.5151 130.726 36.9857 133.023C45.3776 137.341 50.7204 135.005 56.6161 132.766C66.9515 128.837 67.3292 120.254 63.892 115.923Z" stroke="#263238" stroke-miterlimit="10"/>
<path d="M52.3102 127.958C52.7349 127.958 53.0793 127.727 53.0793 127.442C53.0793 127.158 52.7349 126.927 52.3102 126.927C51.8854 126.927 51.541 127.158 51.541 127.442C51.541 127.727 51.8854 127.958 52.3102 127.958Z" stroke="#263238" stroke-miterlimit="10"/>
<path d="M42.8536 127.902C42.8536 128.047 42.6819 128.16 42.469 128.16C42.2562 128.16 42.0845 128.047 42.0845 127.902C42.0845 127.758 42.2562 127.645 42.469 127.645C42.6819 127.645 42.8536 127.761 42.8536 127.902Z" stroke="#263238" stroke-miterlimit="10"/>
<path d="M58.7345 121.785C58.7345 121.93 58.5594 122.043 58.3465 122.043C58.1336 122.043 57.9619 121.93 57.9619 121.785C57.9619 121.641 58.1336 121.531 58.3465 121.531C58.5594 121.531 58.7345 121.645 58.7345 121.785Z" stroke="#263238" stroke-miterlimit="10"/>
<path d="M35.121 119.165C35.121 119.306 34.9459 119.423 34.733 119.423C34.5201 119.423 34.3484 119.306 34.3484 119.165C34.3484 119.025 34.5201 118.908 34.733 118.908C34.9459 118.908 35.121 119.025 35.121 119.165Z" stroke="#263238" stroke-miterlimit="10"/>
<path d="M71.3635 121.044C71.3635 121.044 68.7779 121.243 66.3263 123.565C65.1617 124.693 64.2745 126.076 63.7341 127.605C63.1938 129.134 63.015 130.768 63.2119 132.378C63.6102 135.427 67.5212 141.592 71.6279 144.907C75.7346 148.221 81.304 149.677 86.3378 148.217C91.3716 146.758 93.7614 141.458 94.2902 140.73C94.819 140.002 97.0715 134.892 95.2173 129.596C93.3631 124.3 91.1758 120.845 86.9352 118.526C82.6946 116.208 78.2549 116.074 75.6693 117.664C73.0838 119.254 72.3558 121.044 72.3558 121.044H71.3635Z" fill="#8C8C8C"/>
<path d="M95.9316 133.497L95.5882 130.928C95.5241 130.647 95.4486 130.362 95.3616 130.073C95.3616 131.478 95.2929 133.879 94.7401 135.891C93.9023 138.944 93.0232 139.789 88.5595 142.784C84.0957 145.779 82.9351 145.37 81.0397 145.59C79.1443 145.81 74.7904 144.632 70.6494 141.829C68.1686 140.135 66.194 137.799 64.9357 135.07L63.1571 130.695C63.1315 131.257 63.1545 131.82 63.2257 132.378C63.6241 135.428 67.535 141.592 71.6417 144.907C75.7484 148.221 81.3178 149.677 86.3516 148.218C91.3854 146.758 93.7752 141.459 94.304 140.73C94.6851 140.184 96.0483 137.193 95.9316 133.497Z" fill="#616161"/>
<path d="M73.6813 121.906C73.6813 121.906 74.4779 121.775 76.0677 125.089C77.6575 128.404 80.9058 130.928 82.2483 133.638C83.5909 136.348 84.7 139.006 85.0983 140.067C85.4966 141.128 86.4237 141.987 86.7533 142.918C87.083 143.849 87.1516 145.171 87.4813 145.102C87.8109 145.033 86.8186 142.255 87.0177 141.523C87.2169 140.792 88.2779 139.339 88.0787 138.608C87.8796 137.876 86.6194 136.688 86.8872 136.42C87.1551 136.152 90.6643 135.561 89.1397 135.561C87.6152 135.561 85.9567 136.025 85.7061 135.362C85.4554 134.699 85.4417 133.301 85.4417 133.301C85.4417 133.301 85.9704 133.171 85.3077 132.638C84.645 132.106 83.9858 130.454 83.9858 130.454C83.9858 130.454 82.0629 127.404 80.6723 125.879C79.2816 124.354 78.6121 123.692 77.8223 123.293C77.0326 122.895 77.0944 123.097 76.4317 122.366C75.769 121.634 76.1639 121.174 75.4359 121.373C74.708 121.573 72.8229 120.58 73.6813 121.906Z" fill="#263238" stroke="#263238" stroke-miterlimit="10"/>
<path d="M68.7129 140.397C68.7129 140.397 71.5628 142.386 73.8634 143.832C76.164 145.278 81.0741 145.549 82.9421 145.357" stroke="#263238" stroke-miterlimit="10"/>
<path d="M84.6174 145.102C84.6174 145.102 86.2072 144.639 86.6776 144.244" stroke="#263238" stroke-miterlimit="10"/>
<path d="M88.0615 143.248C88.0615 143.248 90.4651 141.792 91.6394 140.596C92.8137 139.401 93.7614 139.14 94.7538 135.891C95.7461 132.642 95.1521 130.921 95.1521 130.921" stroke="#263238" stroke-miterlimit="10"/>
<path d="M71.3635 121.044C71.3635 121.044 68.7779 121.243 66.3263 123.565C65.1617 124.693 64.2745 126.076 63.7341 127.605C63.1938 129.134 63.015 130.768 63.2119 132.378C63.6102 135.427 67.5212 141.592 71.6279 144.907C75.7346 148.221 81.304 149.677 86.3378 148.217C91.3716 146.758 93.7614 141.458 94.2902 140.73C94.819 140.002 97.0715 134.892 95.2173 129.596C93.3631 124.3 91.1758 120.845 86.9352 118.526C82.6946 116.208 78.2549 116.074 75.6693 117.664C73.0838 119.254 72.3558 121.044 72.3558 121.044H71.3635Z" stroke="#263238" stroke-miterlimit="10"/>
<path d="M77.613 142.736C77.613 142.908 77.3143 143.045 76.9469 143.045C76.5795 143.045 76.2773 142.908 76.2773 142.736C76.2773 142.564 76.5761 142.427 76.9469 142.427C77.3177 142.427 77.613 142.568 77.613 142.736Z" stroke="#263238" stroke-miterlimit="10"/>
<path d="M79.0515 118.475C79.0515 118.646 78.7528 118.784 78.3854 118.784C78.018 118.784 77.7158 118.646 77.7158 118.475C77.7158 118.303 78.0146 118.166 78.3854 118.166C78.7562 118.166 79.0515 118.306 79.0515 118.475Z" stroke="#263238" stroke-miterlimit="10"/>
<path d="M82.7531 118.306C82.7531 118.667 82.293 118.962 81.723 118.962C81.153 118.962 80.6929 118.667 80.6929 118.306C80.6929 117.946 81.153 117.654 81.723 117.654C82.293 117.654 82.7531 117.946 82.7531 118.306Z" stroke="#263238" stroke-miterlimit="10"/>
<path d="M32.5665 130.884C32.5665 130.884 33.758 129.575 39.2588 127.514C44.7595 125.454 51.2526 124.595 53.0415 124.794C54.8305 124.993 55.9567 124.595 57.9448 125.193C59.9329 125.79 60.7948 125.921 61.0592 126.254C61.3236 126.587 62.0515 127.247 62.1202 127.446C62.1889 127.645 65.2346 128.308 65.2998 133.875C65.365 139.442 62.1271 143.344 55.9464 146.26C49.7658 149.176 46.7373 150.701 40.0451 150.501C33.3528 150.302 30.1938 146.857 28.1336 144.072C26.0734 141.287 26.6022 136.581 28.1336 134.383C29.1641 133.004 30.5659 131.946 32.1751 131.334L32.5665 130.884Z" fill="#8C8C8C"/>
<path d="M27.4469 138.972C27.6357 141.52 29.356 143.498 30.8222 144.518C32.2883 145.538 36.1135 146.301 37.068 146.366C38.0226 146.431 44.653 146.112 47.5854 145.6C50.5178 145.088 53.5703 143.474 56.0632 142.478C58.556 141.482 61.7356 139.099 63.6482 136.296C64.9392 134.4 64.9221 131.921 64.7744 130.516C65.1322 131.597 65.3097 132.729 65.2998 133.868C65.365 139.435 62.1202 143.347 55.9567 146.263C49.7933 149.179 46.7476 150.704 40.0553 150.505C33.3631 150.305 30.1938 146.857 28.1336 144.072C26.561 141.942 26.506 138.69 27.2477 136.3C27.2923 136.98 27.3644 137.879 27.4469 138.972Z" fill="#616161"/>
<path d="M60.5302 128.696L57.2167 131.083C56.7532 131.426 54.9642 132.141 53.4397 132.872C51.9151 133.604 48.3372 134.933 44.4915 136.118C40.6458 137.303 36.079 139.102 35.2824 139.367C34.4858 139.631 33.4934 140.294 33.3595 141.221C33.2256 142.149 35.4815 144.8 34.5544 144.999C33.6273 145.199 32.4324 143.543 32.2333 142.88C32.0341 142.217 32.4324 141.555 31.8384 141.355C31.2444 141.156 29.9155 141.819 29.9155 141.355C29.9155 140.892 31.6324 139.896 31.6324 139.896C32.932 139.055 34.2868 138.302 35.6875 137.643C37.607 136.781 38.4688 136.98 40.79 135.723C43.1112 134.466 45.0958 133.071 47.0839 132.209C48.5566 131.627 50.0877 131.204 51.6507 130.949C51.9151 130.884 50.655 132.01 52.7083 130.351C54.7616 128.692 57.282 128.696 57.9447 128.562C58.6074 128.428 62.2505 126.972 60.5302 128.696Z" fill="#263238" stroke="#263238" stroke-miterlimit="10"/>
<path d="M64.6371 133.401C64.6371 133.401 65.2998 136.186 61.4575 138.896C57.6152 141.606 55.8915 142.805 53.5601 143.468" stroke="#263238" stroke-miterlimit="10"/>
<path d="M52.3135 143.938C49.6745 145.001 46.9149 145.736 44.0967 146.126C39.7875 146.658 34.4824 146.061 34.4824 146.061" stroke="#263238" stroke-miterlimit="10"/>
<path d="M32.168 145.133C31.3787 144.827 30.641 144.402 29.9808 143.873C28.8948 142.987 28.1082 141.787 27.7283 140.438" stroke="#263238" stroke-miterlimit="10"/>
<path d="M32.5665 130.884C32.5665 130.884 33.758 129.575 39.2588 127.514C44.7595 125.454 51.2526 124.595 53.0415 124.794C54.8305 124.993 55.9567 124.595 57.9448 125.193C59.9329 125.79 60.7948 125.921 61.0592 126.254C61.3236 126.587 62.0515 127.247 62.1202 127.446C62.1889 127.645 65.2346 128.308 65.2998 133.875C65.365 139.442 62.1271 143.344 55.9464 146.26C49.7658 149.176 46.7373 150.701 40.0451 150.501C33.3528 150.302 30.1938 146.857 28.1336 144.072C26.0734 141.287 26.6022 136.581 28.1336 134.383C29.1641 133.004 30.5659 131.946 32.1751 131.334L32.5665 130.884Z" stroke="#263238" stroke-miterlimit="10"/>
<path d="M55.9017 139.895C56.3265 139.895 56.6709 139.665 56.6709 139.38C56.6709 139.096 56.3265 138.865 55.9017 138.865C55.4769 138.865 55.1326 139.096 55.1326 139.38C55.1326 139.665 55.4769 139.895 55.9017 139.895Z" stroke="#263238" stroke-miterlimit="10"/>
<path d="M52.2517 141.538C52.2517 141.709 52.4818 141.847 52.7668 141.847C53.0518 141.847 53.2818 141.709 53.2818 141.538C53.2818 141.366 53.0518 141.232 52.7668 141.232C52.4818 141.232 52.2517 141.369 52.2517 141.538Z" stroke="#263238" stroke-miterlimit="10"/>
<path d="M44.749 140.51C44.749 140.624 44.9104 140.717 45.1096 140.717C45.3087 140.717 45.4701 140.624 45.4701 140.51C45.4701 140.397 45.3087 140.304 45.1096 140.304C44.9104 140.304 44.749 140.397 44.749 140.51Z" stroke="#263238" stroke-miterlimit="10"/>
<path d="M30.4651 133.727C30.4651 133.895 30.7638 134.033 31.1312 134.033C31.4986 134.033 31.818 133.895 31.818 133.727C31.818 133.559 31.5192 133.418 31.1312 133.418C30.7432 133.418 30.4651 133.555 30.4651 133.727Z" stroke="#263238" stroke-miterlimit="10"/>
</svg>
