<svg width="20" height="20" viewBox="0 0 20 20" fill="none" xmlns="http://www.w3.org/2000/svg">
<g clip-path="url(#clip0_1_13272)">
<path d="M18.4456 7.87899C18.8078 7.52598 18.9356 7.00789 18.7794 6.52691C18.6231 6.04594 18.2151 5.70199 17.7146 5.6293L13.3385 4.9934C13.2961 4.98726 13.256 4.97091 13.2214 4.94577C13.1868 4.92063 13.1588 4.88746 13.1399 4.8491L11.1828 0.883672C10.959 0.430156 10.5058 0.148438 10.0001 0.148438C9.49433 0.148438 9.04113 0.430156 8.81734 0.883672L6.86027 4.84914C6.84133 4.88749 6.81335 4.92066 6.77875 4.94579C6.74415 4.97093 6.70396 4.98728 6.66163 4.99344L2.28554 5.6293C1.78507 5.70199 1.37714 6.04594 1.22081 6.52691C1.06448 7.00789 1.19238 7.52598 1.55456 7.87899L4.72116 10.9657C4.75179 10.9955 4.77469 11.0324 4.78791 11.0731C4.80112 11.1137 4.80425 11.157 4.79702 11.1992L4.04948 15.5576C3.96402 16.0561 4.16503 16.5504 4.57417 16.8476C4.98331 17.145 5.51566 17.1834 5.96323 16.9481L9.87734 14.8903C9.9152 14.8704 9.95733 14.86 10.0001 14.86C10.0429 14.86 10.085 14.8704 10.1229 14.8903L14.037 16.9481C14.2317 17.0504 14.4424 17.101 14.652 17.101C14.9243 17.101 15.1948 17.0157 15.426 16.8476C15.8351 16.5503 16.0362 16.056 15.9507 15.5576L15.2031 11.1991C15.1959 11.157 15.199 11.1137 15.2122 11.073C15.2255 11.0324 15.2484 10.9955 15.279 10.9656L18.4456 7.87899ZM14.1632 11.3776L14.9108 15.7361C14.9358 15.882 14.8457 15.9651 14.8059 15.9941C14.7659 16.023 14.659 16.083 14.528 16.0141L10.6139 13.9563C10.4246 13.8568 10.214 13.8048 10.0002 13.8048C9.78631 13.8048 9.57568 13.8568 9.3864 13.9563L5.4723 16.014C5.34128 16.0829 5.23437 16.0229 5.19449 15.994C5.1546 15.965 5.06452 15.8819 5.08956 15.736L5.8371 11.3776C5.87328 11.1668 5.85765 10.9504 5.79157 10.747C5.72548 10.5437 5.61092 10.3594 5.45777 10.2102L2.29116 7.12348C2.18519 7.02012 2.20917 6.89992 2.22445 6.85305C2.23964 6.80613 2.29093 6.69477 2.43738 6.67352L6.81343 6.03762C7.02506 6.00689 7.22605 5.92515 7.39906 5.79946C7.57208 5.67376 7.71193 5.50787 7.80656 5.31609L9.76363 1.35063C9.82913 1.21793 9.95085 1.20359 10.0002 1.20359C10.0494 1.20359 10.1712 1.21789 10.2367 1.35063V1.35066L12.1938 5.31613C12.2884 5.50791 12.4282 5.6738 12.6012 5.7995C12.7742 5.9252 12.9752 6.00694 13.1868 6.03766L17.563 6.67356C17.7094 6.69481 17.7607 6.80617 17.7759 6.85309C17.7911 6.9 17.8151 7.02024 17.7091 7.12352L14.5425 10.2102C14.3894 10.3594 14.2748 10.5437 14.2088 10.7471C14.1427 10.9504 14.1271 11.1668 14.1632 11.3776ZM16.1634 0.883399C15.9276 0.712149 15.5977 0.764414 15.4265 1.00012L14.8664 1.7709C14.6952 2.0066 14.7474 2.33656 14.9832 2.50781C15.0731 2.57335 15.1815 2.60863 15.2928 2.60859C15.456 2.60859 15.6169 2.53316 15.7201 2.39113L16.2801 1.62035C16.4514 1.38461 16.3991 1.05465 16.1634 0.883399ZM5.13124 1.76777L4.5712 0.996992C4.39999 0.761367 4.07007 0.709102 3.83429 0.880274C3.59859 1.05152 3.54632 1.38148 3.71757 1.61719L4.27761 2.38797C4.32654 2.45545 4.39079 2.51036 4.46508 2.54818C4.53936 2.58599 4.62156 2.60564 4.70491 2.60551C4.81245 2.60551 4.92097 2.57273 5.01456 2.50469C5.25027 2.33348 5.30253 2.00352 5.13124 1.76777ZM1.93562 11.9851C1.84558 11.708 1.54796 11.5564 1.27081 11.6464L0.36468 11.9409C0.0875312 12.0309 -0.0640704 12.3286 0.0259687 12.6057C0.0983906 12.8287 0.305227 12.9704 0.527609 12.9704C0.581633 12.9704 0.636594 12.962 0.690773 12.9444L1.59691 12.6499C1.87402 12.5599 2.02566 12.2623 1.93562 11.9851ZM10.0002 17.8428C9.70882 17.8428 9.47261 18.079 9.47261 18.3704V19.3232C9.47261 19.6146 9.70882 19.8508 10.0002 19.8508C10.2916 19.8508 10.5278 19.6146 10.5278 19.3232V18.3704C10.5278 18.079 10.2916 17.8428 10.0002 17.8428ZM19.6353 11.9416L18.7292 11.6472C18.4521 11.5572 18.1544 11.7088 18.0644 11.9859C17.9743 12.263 18.1259 12.5607 18.4031 12.6507L19.3092 12.9452C19.3619 12.9623 19.4169 12.9711 19.4723 12.9711C19.6948 12.9711 19.9016 12.8293 19.974 12.6064C20.0641 12.3293 19.9124 12.0316 19.6353 11.9416Z" fill="#343433"/>
</g>
<defs>
<clipPath id="clip0_1_13272">
<rect width="20" height="20" fill="white"/>
</clipPath>
</defs>
</svg>
