<svg width="25" height="28" viewBox="0 0 25 28" fill="none" xmlns="http://www.w3.org/2000/svg">
<path fill-rule="evenodd" clip-rule="evenodd" d="M17.7116 0.666504C21.9036 0.666504 24.7196 3.53717 24.7196 7.80917V20.0705C24.7196 24.3798 21.9902 27.1825 17.7662 27.2092L7.50891 27.2132C3.31691 27.2132 0.499573 24.3425 0.499573 20.0705V7.80917C0.499573 3.4985 3.22891 0.697171 7.45291 0.671837L17.7102 0.666504H17.7116ZM17.7116 2.6665L7.45957 2.67184C4.35557 2.6905 2.49957 4.6105 2.49957 7.80917V20.0705C2.49957 23.2905 4.37291 25.2132 7.50757 25.2132L17.7596 25.2092C20.8636 25.1905 22.7196 23.2678 22.7196 20.0705V7.80917C22.7196 4.58917 20.8476 2.6665 17.7116 2.6665ZM17.4544 18.6314C18.0064 18.6314 18.4544 19.0794 18.4544 19.6314C18.4544 20.1834 18.0064 20.6314 17.4544 20.6314H7.82771C7.27571 20.6314 6.82771 20.1834 6.82771 19.6314C6.82771 19.0794 7.27571 18.6314 7.82771 18.6314H17.4544ZM17.4544 13.0494C18.0064 13.0494 18.4544 13.4974 18.4544 14.0494C18.4544 14.6014 18.0064 15.0494 17.4544 15.0494H7.82771C7.27571 15.0494 6.82771 14.6014 6.82771 14.0494C6.82771 13.4974 7.27571 13.0494 7.82771 13.0494H17.4544ZM11.5006 7.48037C12.0526 7.48037 12.5006 7.92837 12.5006 8.48037C12.5006 9.03237 12.0526 9.48037 11.5006 9.48037H7.82731C7.27531 9.48037 6.82731 9.03237 6.82731 8.48037C6.82731 7.92837 7.27531 7.48037 7.82731 7.48037H11.5006Z" fill="#C1C1C1"/>
</svg>
