<svg width="16" height="20" viewBox="0 0 16 20" fill="none" xmlns="http://www.w3.org/2000/svg">
<path d="M13.8567 2.62037H12.0473V1.81092C12.0473 1.54903 11.7616 1.43001 11.4997 1.43001H10.0951C9.76181 0.477696 8.92853 0.00154151 7.97622 0.00154151C7.03439 -0.0338659 6.17773 0.543635 5.85733 1.43001H4.47649C4.2146 1.43001 3.95272 1.54903 3.95272 1.81092V2.62037H2.14329C1.07104 2.63181 0.193832 3.47767 0.143433 4.54878V18.1906C0.143433 19.2381 1.09574 19.9999 2.14329 19.9999H13.8567C14.9042 19.9999 15.8565 19.2381 15.8565 18.1906V4.54882C15.8061 3.47767 14.9289 2.63181 13.8567 2.62037ZM4.90498 2.38231H6.21442C6.32576 2.36873 6.42981 2.31976 6.51124 2.24262C6.59267 2.16547 6.6472 2.06423 6.66678 1.95378C6.80777 1.33978 7.34645 0.899031 7.97622 0.882444C8.60016 0.901355 9.13072 1.34347 9.26182 1.95378C9.28258 2.06783 9.34058 2.17178 9.42675 2.24933C9.51292 2.32688 9.62238 2.37365 9.73798 2.38231H11.095V4.28693H4.90498V2.38231ZM14.9042 18.1906C14.9042 18.7144 14.3805 19.0477 13.8567 19.0477H2.14329C1.61952 19.0477 1.09574 18.7144 1.09574 18.1906V4.54882C1.14432 4.00363 1.596 3.5827 2.14329 3.57272H3.95267V4.78692C3.97782 5.05368 4.20886 5.25323 4.47644 5.23929H11.4997C11.6311 5.24648 11.7604 5.20393 11.8619 5.1201C11.9633 5.03628 12.0295 4.91733 12.0473 4.78692V3.57268H13.8566C14.4039 3.5827 14.8556 4.00358 14.9042 4.54878V18.1906H14.9042Z" fill="#343433"/>
<path d="M6.16678 10.6432C5.98819 10.455 5.69172 10.4444 5.50015 10.6194L3.97644 12.0717L3.33364 11.4051C3.15505 11.2168 2.85858 11.2062 2.66701 11.3813C2.57822 11.4743 2.52869 11.5979 2.52869 11.7265C2.52869 11.8551 2.57822 11.9787 2.66701 12.0717L3.6431 13.0716C3.68483 13.1184 3.73631 13.1554 3.79389 13.18C3.85148 13.2047 3.91378 13.2165 3.9764 13.2145C4.10199 13.2127 4.22179 13.1614 4.30969 13.0716L6.16669 11.3099C6.35079 11.141 6.36309 10.8548 6.19417 10.6708C6.18549 10.6611 6.17635 10.652 6.16678 10.6432ZM12.9996 11.6669H7.52384C7.26086 11.6669 7.04768 11.8801 7.04768 12.1431C7.04768 12.4061 7.26086 12.6193 7.52384 12.6193H12.9996C13.2626 12.6193 13.4757 12.4061 13.4757 12.1431C13.4757 11.8801 13.2626 11.6669 12.9996 11.6669ZM6.16678 6.83399C5.98819 6.64575 5.69172 6.63513 5.50015 6.81021L3.97644 8.26246L3.33364 7.59582C3.15505 7.40757 2.85858 7.39696 2.66701 7.57203C2.57822 7.66504 2.52869 7.78867 2.52869 7.91725C2.52869 8.04582 2.57822 8.16945 2.66701 8.26246L3.6431 9.26239C3.68483 9.30912 3.73631 9.34613 3.79389 9.37081C3.85148 9.39549 3.91378 9.40725 3.9764 9.40525C4.10199 9.40346 4.22179 9.35211 4.30969 9.26239L6.16669 7.50063C6.35079 7.33175 6.36309 7.04557 6.19417 6.86152C6.18549 6.8519 6.17635 6.84272 6.16678 6.83399ZM12.9996 7.85771H7.52384C7.26086 7.85771 7.04768 8.07088 7.04768 8.33386C7.04768 8.59684 7.26086 8.81002 7.52384 8.81002H12.9996C13.2626 8.81002 13.4757 8.59684 13.4757 8.33386C13.4757 8.07088 13.2626 7.85771 12.9996 7.85771ZM6.16678 14.4524C5.98819 14.2642 5.69172 14.2536 5.50015 14.4286L3.97644 15.8809L3.33364 15.2143C3.15505 15.026 2.85858 15.0154 2.66701 15.1905C2.57822 15.2835 2.52869 15.4071 2.52869 15.5357C2.52869 15.6642 2.57822 15.7879 2.66701 15.8809L3.6431 16.8808C3.68483 16.9275 3.73631 16.9646 3.79389 16.9892C3.85148 17.0139 3.91378 17.0257 3.9764 17.0237C4.10199 17.0219 4.22179 16.9705 4.30969 16.8808L6.16669 15.1191C6.35079 14.9502 6.36309 14.664 6.19417 14.4799C6.18547 14.4704 6.17633 14.4612 6.16678 14.4524ZM12.9996 15.4762H7.52384C7.26086 15.4762 7.04768 15.6894 7.04768 15.9523C7.04768 16.2153 7.26086 16.4285 7.52384 16.4285H12.9996C13.2626 16.4285 13.4757 16.2153 13.4757 15.9523C13.4757 15.6894 13.2626 15.4762 12.9996 15.4762Z" fill="#343433"/>
</svg>
