<svg width="25" height="28" viewBox="0 0 25 28" fill="none" xmlns="http://www.w3.org/2000/svg">
<path d="M18.088 0.666992C22.2067 0.666992 24.5 3.04033 24.5 7.10699V20.8803C24.5 25.0137 22.2067 27.3337 18.088 27.3337H6.91333C2.86 27.3337 0.5 25.0137 0.5 20.8803V7.10699C0.5 3.04033 2.86 0.666992 6.91333 0.666992H18.088ZM7.27333 18.987C6.87333 18.947 6.48667 19.1337 6.27333 19.4803C6.06 19.8137 6.06 20.2537 6.27333 20.6003C6.48667 20.9337 6.87333 21.1337 7.27333 21.0803H17.7267C18.2587 21.027 18.66 20.5723 18.66 20.0403C18.66 19.4937 18.2587 19.0403 17.7267 18.987H7.27333ZM17.7267 12.9057H7.27333C6.69867 12.9057 6.23333 13.3737 6.23333 13.947C6.23333 14.5203 6.69867 14.987 7.27333 14.987H17.7267C18.3 14.987 18.7667 14.5203 18.7667 13.947C18.7667 13.3737 18.3 12.9057 17.7267 12.9057ZM11.2587 6.86699H7.27333V6.88032C6.69867 6.88032 6.23333 7.34699 6.23333 7.92033C6.23333 8.49366 6.69867 8.96032 7.27333 8.96032H11.2587C11.8333 8.96032 12.3 8.49366 12.3 7.90566C12.3 7.33366 11.8333 6.86699 11.2587 6.86699Z" fill="#CC2027"/>
</svg>
