<svg width="20" height="20" viewBox="0 0 20 20" fill="none" xmlns="http://www.w3.org/2000/svg">
<g clip-path="url(#clip0_1_13249)">
<path d="M11.7477 11.0428C11.7063 11.0572 11.6682 11.0796 11.6355 11.1087C11.6029 11.1378 11.5762 11.1731 11.5572 11.2125C11.5381 11.2519 11.527 11.2947 11.5245 11.3384C11.522 11.3821 11.5281 11.4259 11.5425 11.4673C11.5569 11.5086 11.5793 11.5467 11.6084 11.5794C11.6376 11.6121 11.6729 11.6387 11.7123 11.6578C11.7517 11.6768 11.7945 11.6879 11.8382 11.6904C11.8819 11.6929 11.9257 11.6868 11.967 11.6724C13.3078 11.2078 14.4405 10.2831 15.1642 9.06251C15.8878 7.84195 16.1556 6.40445 15.92 5.00517C15.6844 3.60589 14.9607 2.33535 13.8772 1.41906C12.7937 0.502765 11.4207 0 10.0017 0C8.5827 0 7.20962 0.502765 6.12616 1.41906C5.04269 2.33535 4.31892 3.60589 4.08332 5.00517C3.84772 6.40445 4.11552 7.84195 4.8392 9.06251C5.56287 10.2831 6.69561 11.2078 8.03635 11.6724C8.11989 11.7015 8.21155 11.6961 8.29116 11.6576C8.37077 11.6191 8.4318 11.5505 8.46085 11.4669C8.48989 11.3834 8.48455 11.2917 8.44601 11.2121C8.40747 11.1325 8.33889 11.0715 8.25535 11.0424C7.67904 10.8413 7.14164 10.5425 6.66668 10.1591V9.79609C6.66602 9.28817 6.81955 8.792 7.10697 8.37322C7.39439 7.95444 7.80216 7.63277 8.27635 7.45076C8.78022 7.80773 9.3825 7.99946 10 7.99946C10.6175 7.99946 11.2198 7.80773 11.7237 7.45076C12.1979 7.63277 12.6056 7.95444 12.8931 8.37322C13.1805 8.792 13.334 9.28817 13.3333 9.79609V10.1604C12.8592 10.5432 12.3229 10.8416 11.7477 11.0428ZM7.66668 4.99942C7.66668 4.53793 7.80353 4.08681 8.05992 3.70309C8.31631 3.31938 8.68072 3.02031 9.10709 2.8437C9.53345 2.6671 10.0026 2.62089 10.4552 2.71092C10.9078 2.80096 11.3236 3.02318 11.6499 3.34951C11.9763 3.67583 12.1985 4.09159 12.2885 4.54421C12.3785 4.99683 12.3323 5.46599 12.1557 5.89235C11.9791 6.31871 11.6801 6.68313 11.2963 6.93952C10.9126 7.19591 10.4615 7.33276 10 7.33276C9.38139 7.33205 8.78831 7.08599 8.35088 6.64856C7.91344 6.21113 7.66739 5.61804 7.66668 4.99942ZM12.2667 6.95709C12.6431 6.52238 12.8866 5.98865 12.9683 5.41947C13.0499 4.85028 12.9663 4.26961 12.7273 3.74661C12.4884 3.2236 12.1041 2.78029 11.6204 2.46946C11.1366 2.15863 10.5737 1.99337 9.99868 1.99337C9.42366 1.99337 8.86076 2.15863 8.377 2.46946C7.89323 2.78029 7.50899 3.2236 7.27002 3.74661C7.03105 4.26961 6.94742 4.85028 7.02909 5.41947C7.11076 5.98865 7.35429 6.52238 7.73068 6.95709C7.24797 7.20389 6.83648 7.57017 6.5354 8.02102C6.23432 8.47188 6.05368 8.99232 6.01068 9.53276C4.11068 7.39109 4.24001 4.13142 6.30435 2.14742C8.36868 0.163755 11.631 0.163755 13.6957 2.14742C15.76 4.13142 15.8897 7.39109 13.9893 9.53276C13.9462 8.99202 13.7652 8.47135 13.4636 8.02045C13.1621 7.56954 12.75 7.20345 12.2667 6.95709Z" fill="#343433"/>
<path d="M7.13335 19.8698C7.23324 19.9435 7.35186 19.9877 7.47564 19.9972C7.59943 20.0066 7.72338 19.9811 7.83335 19.9235L10.0023 18.7965L12.171 19.9238C12.2813 19.9811 12.4053 20.0065 12.5292 19.9971C12.6531 19.9876 12.7719 19.9437 12.8722 19.8703C12.9725 19.7969 13.0503 19.697 13.0968 19.5818C13.1433 19.4665 13.1566 19.3406 13.1353 19.2182L12.7233 16.8408L14.4667 15.1605C14.5565 15.0739 14.6202 14.964 14.6505 14.843C14.6809 14.7221 14.6768 14.5951 14.6386 14.4764C14.6004 14.3577 14.5297 14.252 14.4345 14.1715C14.3393 14.091 14.2234 14.0388 14.1 14.0208L11.68 13.6732L10.6 11.5022C10.5451 11.3907 10.4599 11.297 10.3542 11.2317C10.2485 11.1664 10.1266 11.1321 10.0023 11.1328C9.87846 11.1324 9.75693 11.1666 9.65153 11.2317C9.54613 11.2968 9.46107 11.3902 9.40601 11.5012L8.32001 13.6732L5.90535 14.0205C5.78188 14.0384 5.66593 14.0906 5.57066 14.1711C5.47539 14.2517 5.40463 14.3574 5.36643 14.4761C5.32823 14.5949 5.32412 14.722 5.35457 14.843C5.38502 14.9639 5.44881 15.074 5.53868 15.1605L7.28268 16.8408L6.87035 19.2182C6.84876 19.3405 6.86196 19.4665 6.90846 19.5817C6.95496 19.6969 7.03288 19.7967 7.13335 19.8698ZM6.00001 14.6805L8.58735 14.3082C8.64061 14.3005 8.69123 14.2801 8.73488 14.2486C8.77853 14.2172 8.81392 14.1756 8.83801 14.1275L10.002 11.7995L11.161 14.1268C11.1851 14.1751 11.2205 14.2168 11.2642 14.2484C11.3079 14.28 11.3586 14.3005 11.412 14.3082L14.0047 14.6805L12.1333 16.4835C12.0941 16.5213 12.0648 16.5681 12.0479 16.6199C12.031 16.6717 12.027 16.7268 12.0363 16.7805L12.4787 19.3328L10.1563 18.1258C10.1089 18.1012 10.0562 18.0883 10.0027 18.0883C9.94919 18.0883 9.89648 18.1012 9.84901 18.1258L7.52635 19.3328L7.96868 16.7812C7.97801 16.7275 7.97404 16.6724 7.95713 16.6206C7.94022 16.5688 7.91088 16.522 7.87168 16.4842L6.00001 14.6805Z" fill="#343433"/>
<path d="M1.56667 14.741L1.241 16.624C1.22131 16.7349 1.23304 16.849 1.27487 16.9536C1.3167 17.0581 1.38696 17.1489 1.47769 17.2156C1.56843 17.2823 1.67602 17.3223 1.7883 17.331C1.90058 17.3397 2.01305 17.3169 2.113 17.265L3.83334 16.3696L5.55267 17.267C5.5915 17.2872 5.63393 17.2996 5.67754 17.3034C5.72115 17.3072 5.76509 17.3024 5.80684 17.2893C5.8486 17.2761 5.88735 17.2549 5.9209 17.2267C5.95444 17.1986 5.98211 17.1641 6.00234 17.1253C6.02256 17.0865 6.03494 17.0441 6.03876 17.0004C6.04259 16.9568 6.03779 16.9129 6.02463 16.8711C6.01148 16.8294 5.99023 16.7906 5.96209 16.7571C5.93396 16.7235 5.8995 16.6959 5.86067 16.6756L3.98734 15.699C3.93978 15.6742 3.88696 15.6613 3.83334 15.6613C3.77972 15.6613 3.72689 15.6742 3.67934 15.699L1.92034 16.6153L2.25367 14.682C2.263 14.6283 2.25903 14.5732 2.24212 14.5214C2.22521 14.4696 2.19587 14.4228 2.15667 14.385L0.741003 13.0183L2.7 12.737C2.7533 12.7293 2.80394 12.7088 2.84759 12.6773C2.89124 12.6458 2.92661 12.6041 2.95067 12.556L3.83334 10.7913L4.71267 12.5556C4.73675 12.604 4.7722 12.6457 4.81598 12.6773C4.85976 12.7089 4.91056 12.7294 4.964 12.737L7.057 13.037C7.14452 13.0495 7.23343 13.0267 7.30416 12.9737C7.3749 12.9206 7.42166 12.8417 7.43417 12.7541C7.44668 12.6666 7.42391 12.5777 7.37087 12.507C7.31783 12.4363 7.23886 12.3895 7.15134 12.377L5.23134 12.102L4.37234 10.378C4.32246 10.2774 4.24538 10.1929 4.14987 10.134C4.05436 10.0751 3.94423 10.0441 3.832 10.0446H3.83C3.60334 10.0443 3.39667 10.1726 3.29667 10.376L2.43334 12.102L0.519003 12.3766C0.406711 12.3916 0.300952 12.4381 0.213959 12.5106C0.126966 12.5832 0.0622933 12.6789 0.0274227 12.7867C-0.00744778 12.8945 -0.0110916 13.0099 0.0169127 13.1197C0.044917 13.2295 0.103425 13.3291 0.185669 13.407L1.56667 14.741ZM19.97 12.7856C19.9359 12.6784 19.8721 12.5831 19.7859 12.5108C19.6998 12.4384 19.5948 12.392 19.4833 12.377L17.5667 12.102L16.7053 10.3763C16.6057 10.1726 16.3987 10.043 16.172 10.043H16.17C16.0577 10.0424 15.9475 10.0733 15.8519 10.1322C15.7564 10.1912 15.6792 10.2757 15.6293 10.3763L14.7707 12.1L12.8503 12.375C12.7628 12.3875 12.6838 12.4343 12.6308 12.505C12.5778 12.5757 12.555 12.6646 12.5675 12.7521C12.58 12.8397 12.6268 12.9186 12.6975 12.9717C12.7682 13.0247 12.8571 13.0475 12.9447 13.035L15.038 12.735C15.0914 12.7274 15.1422 12.7069 15.186 12.6753C15.2298 12.6437 15.2653 12.602 15.2893 12.5536L16.1667 10.7913L17.0477 12.556C17.0717 12.6041 17.1071 12.6458 17.1507 12.6773C17.1944 12.7088 17.245 12.7293 17.2983 12.737L19.2563 13.018L17.8407 14.3846C17.8015 14.4225 17.7721 14.4693 17.7552 14.5211C17.7383 14.5729 17.7343 14.628 17.7437 14.6816L18.0787 16.615L16.3197 15.6976C16.2721 15.6729 16.2193 15.6599 16.1657 15.6599C16.1121 15.6599 16.0592 15.6729 16.0117 15.6976L14.1383 16.6743C14.0995 16.6945 14.065 16.7222 14.0369 16.7558C14.0088 16.7893 13.9875 16.828 13.9744 16.8698C13.9612 16.9116 13.9564 16.9555 13.9602 16.9991C13.9641 17.0427 13.9764 17.0851 13.9967 17.124C14.0169 17.1628 14.0446 17.1973 14.0781 17.2254C14.1117 17.2535 14.1504 17.2748 14.1922 17.2879C14.2339 17.3011 14.2779 17.3059 14.3215 17.3021C14.3651 17.2982 14.4075 17.2859 14.4463 17.2656L16.1667 16.3696L17.8867 17.267C17.9865 17.3188 18.0988 17.3417 18.2109 17.3331C18.323 17.3244 18.4305 17.2846 18.5212 17.218C18.6118 17.1514 18.6821 17.0609 18.7239 16.9565C18.7658 16.8521 18.7776 16.7381 18.758 16.6273L18.4333 14.741L19.8153 13.4076C19.8973 13.3292 19.9553 13.2291 19.9827 13.119C20.0101 13.0089 20.0057 12.8933 19.97 12.7856ZM8.16667 15.7133C8.18267 15.7133 8.19867 15.712 8.21467 15.7096L9.46834 15.5293C9.5216 15.5217 9.57222 15.5012 9.61587 15.4698C9.65952 15.4383 9.69491 15.3968 9.719 15.3486L10.299 14.189C10.3198 14.1497 10.3326 14.1066 10.3366 14.0623C10.3406 14.018 10.3357 13.9734 10.3222 13.931C10.3087 13.8886 10.2868 13.8494 10.2579 13.8156C10.2291 13.7817 10.1937 13.754 10.154 13.7341C10.1142 13.7141 10.0709 13.7022 10.0265 13.6992C9.98217 13.6962 9.93765 13.7021 9.89558 13.7165C9.85351 13.731 9.81474 13.7536 9.78156 13.7833C9.74838 13.8129 9.72144 13.8488 9.70234 13.889L9.20234 14.8926L8.12067 15.0483C8.03716 15.0602 7.96127 15.1033 7.90829 15.169C7.85532 15.2346 7.8292 15.3179 7.8352 15.402C7.84121 15.4862 7.87889 15.5649 7.94065 15.6224C8.00241 15.6798 8.08365 15.7117 8.168 15.7116L8.16667 15.7133Z" fill="#343433"/>
</g>
<defs>
<clipPath id="clip0_1_13249">
<rect width="20" height="20" fill="white"/>
</clipPath>
</defs>
</svg>
