<svg width="48" height="48" viewBox="0 0 48 48" fill="none" xmlns="http://www.w3.org/2000/svg">
<circle cx="24" cy="24" r="24" fill="#F3F2FF"/>
<path d="M28.3401 14C31.7301 14 34.0001 16.38 34.0001 19.92V28.091C34.0001 31.62 31.7301 34 28.3401 34H19.6701C16.2801 34 14.0001 31.62 14.0001 28.091V19.92C14.0001 16.38 16.2801 14 19.6701 14H28.3401ZM28.1801 21C27.8401 20.66 27.2801 20.66 26.9401 21L22.8101 25.13L21.0601 23.38C20.7201 23.04 20.1601 23.04 19.8201 23.38C19.4801 23.72 19.4801 24.27 19.8201 24.62L22.2001 26.99C22.3701 27.16 22.5901 27.24 22.8101 27.24C23.0401 27.24 23.2601 27.16 23.4301 26.99L28.1801 22.24C28.5201 21.9 28.5201 21.35 28.1801 21Z" fill="#6F51FF"/>
</svg>
