<svg width="60" height="60" viewBox="0 0 60 60" fill="none" xmlns="http://www.w3.org/2000/svg">
<circle cx="30" cy="30" r="30" fill="#CC2027" fill-opacity="0.1"/>
<circle cx="30" cy="30" r="20" fill="#C1C1C1"/>
<rect x="26" y="23" width="8" height="8" fill="#C1C1C1"/>
<path d="M30 18C24.934 18 20.8125 22.1215 20.8125 27.1875C20.8125 28.8091 21.2409 30.4034 22.0515 31.7979C22.2413 32.1244 22.451 32.4388 22.6793 32.7396L29.6008 42H30.3991L37.3207 32.7397C37.549 32.4389 37.7587 32.1244 37.9485 31.7979C38.7591 30.4034 39.1875 28.8091 39.1875 27.1875C39.1875 22.1215 35.066 18 30 18ZM30 30.2344C28.32 30.2344 26.9531 28.8675 26.9531 27.1875C26.9531 25.5075 28.32 24.1406 30 24.1406C31.68 24.1406 33.0469 25.5075 33.0469 27.1875C33.0469 28.8675 31.68 30.2344 30 30.2344Z" fill="white"/>
</svg>
