<svg width="60" height="60" viewBox="0 0 60 60" fill="none" xmlns="http://www.w3.org/2000/svg">
<circle cx="30" cy="30" r="30" fill="#CC2027" fill-opacity="0.1"/>
<g clip-path="url(#clip0_121_4951)">
<path d="M30 50C41.0457 50 50 41.0457 50 30C50 18.9543 41.0457 10 30 10C18.9543 10 10 18.9543 10 30C10 41.0457 18.9543 50 30 50Z" fill="#C1C1C1"/>
<path d="M28.4094 27.9258C28.4094 28.3164 28.6242 28.5852 29.0438 28.7469V27.1406L28.9695 27.1695C28.5938 27.3492 28.407 27.6016 28.4094 27.9258Z" fill="white"/>
<path d="M31.0563 31.1143V33.0986C31.1295 33.0673 31.2003 33.0304 31.268 32.9885C31.643 32.7604 31.8326 32.4393 31.8367 32.0252C31.8391 31.5799 31.5766 31.2775 31.0563 31.1143Z" fill="white"/>
<path d="M30 19.0625C23.9695 19.0625 19.0625 23.968 19.0625 30C19.0625 36.032 23.9688 40.9375 30 40.9375C36.0312 40.9375 40.9375 36.0305 40.9375 30C40.9375 23.9695 36.0305 19.0625 30 19.0625ZM34.4469 32.0195C34.4266 33.0612 33.9669 33.8792 33.068 34.4734C32.4584 34.8599 31.7719 35.1087 31.0562 35.2023V36.0938C31.0564 36.1626 31.0429 36.2308 31.0166 36.2945C30.9902 36.3581 30.9516 36.416 30.9029 36.4647C30.8542 36.5134 30.7964 36.552 30.7328 36.5783C30.6691 36.6046 30.6009 36.6181 30.532 36.618H29.5687C29.4998 36.6181 29.4316 36.6046 29.3679 36.5783C29.3042 36.552 29.2463 36.5134 29.1976 36.4647C29.1488 36.416 29.1101 36.3582 29.0837 36.2945C29.0573 36.2309 29.0437 36.1627 29.0437 36.0938V35.2039C28.1883 35.0735 27.3801 34.7275 26.6953 34.1984C26.3036 33.9101 25.957 33.5649 25.6672 33.1742C25.5957 33.0984 25.5548 32.9987 25.5523 32.8945C25.5523 32.7383 25.6305 32.6062 25.7992 32.5086L26.7805 31.9328H26.7844C26.8754 31.8913 26.972 31.8632 27.0711 31.8492C27.1537 31.8469 27.2356 31.8646 27.3097 31.901C27.3839 31.9373 27.4481 31.9911 27.4969 32.0578C27.9828 32.5844 28.4984 32.9435 29.0437 33.1352V30.8695C27.7823 30.6753 26.8708 30.2013 26.3094 29.4477C25.975 29.0076 25.7929 28.4707 25.7906 27.918C25.7687 26.7461 26.4039 25.8641 27.6984 25.275C28.1273 25.0837 28.5819 24.9561 29.0477 24.8961V23.9062C29.0477 23.7669 29.1029 23.6333 29.2014 23.5347C29.2998 23.4362 29.4333 23.3807 29.5727 23.3805H30.5359C30.6049 23.3806 30.6731 23.3943 30.7368 23.4207C30.8004 23.4472 30.8583 23.486 30.9069 23.5348C30.9556 23.5836 30.9942 23.6415 31.0205 23.7053C31.0468 23.769 31.0603 23.8373 31.0602 23.9062V24.9219C32.1206 25.1062 32.9875 25.581 33.6609 26.3461C33.7055 26.3835 33.7413 26.4303 33.7657 26.4831C33.7901 26.5359 33.8027 26.5934 33.8023 26.6516C33.799 26.7254 33.7765 26.797 33.737 26.8595C33.6976 26.9219 33.6425 26.9731 33.5773 27.0078L32.4977 27.6844C32.3949 27.7364 32.2834 27.769 32.1688 27.7805C32.0042 27.7809 31.8448 27.723 31.7188 27.6172C31.5213 27.4432 31.3004 27.2978 31.0625 27.1852V28.9969C32.3521 29.1776 33.3016 29.631 33.9109 30.357C34.2797 30.8156 34.4602 31.3695 34.4469 32.0195Z" fill="white"/>
</g>
<defs>
<clipPath id="clip0_121_4951">
<rect width="40" height="40" fill="white" transform="translate(10 10)"/>
</clipPath>
</defs>
</svg>
