<svg width="22" height="28" viewBox="0 0 22 28" fill="none" xmlns="http://www.w3.org/2000/svg">
<path fill-rule="evenodd" clip-rule="evenodd" d="M21.9532 22.2572C21.9532 26.6519 15.9265 27.1599 11.3945 27.1599L11.0702 27.1596C8.1828 27.1526 0.833191 26.9703 0.833191 22.2305C0.833191 17.9256 6.61766 17.3502 11.1152 17.3285L11.7188 17.3282C14.6061 17.3352 21.9532 17.5175 21.9532 22.2572ZM11.3945 19.3279C5.71319 19.3279 2.83319 20.3039 2.83319 22.2305C2.83319 24.1745 5.71319 25.1599 11.3945 25.1599C17.0745 25.1599 19.9532 24.1839 19.9532 22.2572C19.9532 20.3132 17.0745 19.3279 11.3945 19.3279ZM11.3945 0.666016C15.2985 0.666016 18.4732 3.84202 18.4732 7.74602C18.4732 11.65 15.2985 14.8247 11.3945 14.8247H11.3519C7.45586 14.8127 4.29986 11.6353 4.31315 7.74202C4.31315 3.84202 7.48919 0.666016 11.3945 0.666016ZM11.3945 2.57002C8.53986 2.57002 6.21716 4.89135 6.21716 7.74602C6.20786 10.5913 8.51319 12.9114 11.3559 12.922L11.3945 13.874V12.922C14.2479 12.922 16.5692 10.5993 16.5692 7.74602C16.5692 4.89135 14.2479 2.57002 11.3945 2.57002Z" fill="#C1C1C1"/>
</svg>
