<svg width="14" height="14" viewBox="0 0 14 14" fill="none" xmlns="http://www.w3.org/2000/svg">
<path d="M10.9457 8.5465C10.773 8.71384 10.6937 8.95584 10.733 9.19317L11.3257 12.4732C11.3757 12.7512 11.2583 13.0325 11.0257 13.1932C10.7977 13.3598 10.4943 13.3798 10.2457 13.2465L7.293 11.7065C7.19033 11.6518 7.07633 11.6225 6.95967 11.6192H6.779C6.71633 11.6285 6.655 11.6485 6.599 11.6792L3.64567 13.2265C3.49967 13.2998 3.33433 13.3258 3.17233 13.2998C2.77767 13.2252 2.51433 12.8492 2.579 12.4525L3.17233 9.1725C3.21167 8.93317 3.13233 8.68984 2.95967 8.51984L0.552335 6.1865C0.351001 5.99117 0.281001 5.69784 0.373001 5.43317C0.462335 5.16917 0.690335 4.9765 0.965668 4.93317L4.279 4.4525C4.531 4.4265 4.75233 4.27317 4.86567 4.0465L6.32567 1.05317C6.36033 0.986504 6.405 0.925171 6.459 0.873171L6.519 0.826504C6.55033 0.791837 6.58633 0.763171 6.62633 0.739837L6.699 0.713171L6.81234 0.666504H7.093C7.34367 0.692504 7.56433 0.842504 7.67967 1.0665L9.159 4.0465C9.26567 4.2645 9.473 4.41584 9.71234 4.4525L13.0257 4.93317C13.3057 4.97317 13.5397 5.1665 13.6323 5.43317C13.7197 5.7005 13.6443 5.99384 13.439 6.1865L10.9457 8.5465Z" fill="#FDA01C"/>
</svg>
