<svg width="16" height="21" viewBox="0 0 16 21" fill="none" xmlns="http://www.w3.org/2000/svg">
<path fill-rule="evenodd" clip-rule="evenodd" d="M7.91779 20.1195C4.22597 20.1195 1.07324 19.545 1.07324 17.2442C1.07324 14.9434 4.20597 12.8195 7.91779 12.8195C11.6096 12.8195 14.7623 14.9228 14.7623 17.2236C14.7623 19.5234 11.6296 20.1195 7.91779 20.1195Z" stroke="#707070" stroke-width="1.5" stroke-linecap="round" stroke-linejoin="round"/>
<path fill-rule="evenodd" clip-rule="evenodd" d="M7.91055 9.63118C10.3333 9.63118 12.2969 7.66754 12.2969 5.24482C12.2969 2.82209 10.3333 0.857544 7.91055 0.857544C5.48782 0.857544 3.52325 2.82209 3.52325 5.24482C3.51509 7.65936 5.46509 9.623 7.87964 9.63118C7.89055 9.63118 7.90055 9.63118 7.91055 9.63118Z" stroke="#707070" stroke-width="1.5" stroke-linecap="round" stroke-linejoin="round"/>
</svg>
