<svg width="186" height="180" viewBox="0 0 186 180" fill="none" xmlns="http://www.w3.org/2000/svg">
<circle cx="97" cy="90" r="70" fill="#CC2027"/>
<circle cx="20" cy="10" r="10" fill="#CC2027"/>
<circle cx="106.5" cy="4.5" r="2.5" fill="#CC2027"/>
<circle cx="10" cy="133" r="5" fill="#CC2027"/>
<circle cx="178.5" cy="27.5" r="7.5" fill="#CC2027"/>
<circle cx="165.5" cy="160.5" r="2.5" fill="#CC2027"/>
<circle cx="170.5" cy="110.5" r="2.5" fill="#CC2027"/>
<circle cx="122" cy="171" r="1" fill="#CC2027"/>
<circle cx="62.5" cy="176.5" r="3.5" fill="#CC2027"/>
<circle cx="1" cy="75" r="1" fill="#CC2027"/>
<path d="M110.02 59.9998C120.19 59.9998 127 67.1398 127 77.7598V102.273C127 112.86 120.19 120 110.02 120H84.0103C73.8403 120 67.0003 112.86 67.0003 102.273V77.7598C67.0003 67.1398 73.8403 59.9998 84.0103 59.9998H110.02ZM109.54 80.9998C108.52 79.9798 106.84 79.9798 105.82 80.9998L93.4303 93.3898L88.1803 88.1398C87.1603 87.1198 85.4803 87.1198 84.4603 88.1398C83.4403 89.1598 83.4403 90.8098 84.4603 91.8598L91.6003 98.9698C92.1103 99.4798 92.7703 99.7198 93.4303 99.7198C94.1203 99.7198 94.7803 99.4798 95.2903 98.9698L109.54 84.7198C110.56 83.6998 110.56 82.0498 109.54 80.9998Z" fill="white"/>
</svg>
