<svg width="60" height="60" viewBox="0 0 60 60" fill="none" xmlns="http://www.w3.org/2000/svg">
<rect x="0.5" y="0.5" width="59" height="59" rx="7.5" fill="white" stroke="#DCDCDC"/>
<g clip-path="url(#clip0_1_13555)">
<path d="M30.5362 44.9828C32.8302 44.6569 34.8414 42.2625 36.1069 38.7265C34.2775 38.3167 32.4107 38.097 30.5362 38.0707L30.5362 44.9828ZM34.2013 44.4205C34.3369 44.3812 34.472 44.3417 34.606 44.2982C34.7191 44.2619 34.8307 44.2226 34.9422 44.1836C35.0743 44.1382 35.2058 44.0908 35.3364 44.0414C35.4479 43.999 35.5585 43.954 35.6692 43.9089C35.7969 43.8553 35.9244 43.8019 36.0506 43.7482C36.2861 43.6439 36.519 43.5339 36.7491 43.4184C36.8564 43.3637 36.9635 43.3079 37.0708 43.2505C37.191 43.1862 37.3104 43.1205 37.429 43.0528C37.5348 42.9927 37.6399 42.9312 37.7442 42.8683C37.8604 42.7969 37.9761 42.7254 38.091 42.6539C38.1943 42.5885 38.2965 42.5217 38.3979 42.4534C38.5108 42.3767 38.6227 42.2984 38.7335 42.2186C38.8327 42.1477 38.9315 42.0762 39.0299 42.0041C39.1388 41.9203 39.2471 41.8356 39.3547 41.7499C39.4503 41.6738 39.5456 41.5981 39.6395 41.5198C39.7466 41.4308 39.8493 41.3387 39.9532 41.2465C40.0443 41.1656 40.1359 41.0855 40.2249 41.0026C40.3273 40.9069 40.427 40.808 40.5268 40.7098C40.6132 40.6245 40.7006 40.5405 40.7852 40.453C40.8009 40.4368 40.8158 40.4192 40.8321 40.4025C39.6628 39.7985 38.4308 39.3244 37.1583 38.9888C36.4964 41.0995 35.3187 43.012 33.7316 44.553C33.7751 44.5417 33.8186 44.5325 33.862 44.5213C33.9767 44.4891 34.0893 44.4537 34.2013 44.4205ZM45.0001 30.5491H38.5714C38.547 33.0592 38.1829 35.5544 37.4889 37.9668C38.9041 38.3448 40.2699 38.8883 41.5579 39.586C43.6728 37.0371 44.8832 33.8591 45 30.5491H45.0001ZM30.5362 29.4768H37.4991C37.4718 27.0555 37.1167 24.649 36.4436 22.3229C34.5047 22.7651 32.5246 23.0013 30.5362 23.0275V29.4768ZM30.5362 15.043V21.9551C32.4107 21.9288 34.2775 21.709 36.1069 21.2994C34.8414 17.7633 32.8304 15.369 30.5362 15.043H30.5362ZM30.5362 36.9984C32.5246 37.0248 34.5047 37.261 36.4436 37.7031C37.1167 35.377 37.4718 32.9705 37.4991 30.5491H30.5362V36.9984ZM41.558 20.4399C40.2699 21.1376 38.9042 21.6811 37.4889 22.0591C38.183 24.4715 38.5471 26.9667 38.5714 29.4768H45.0001C44.883 26.1669 43.6725 22.989 41.558 20.4399ZM40.8336 19.6265C40.8179 19.6105 40.803 19.5932 40.7875 19.5768C40.7027 19.4893 40.6147 19.405 40.5283 19.3199C40.4289 19.2218 40.3296 19.1226 40.227 19.0273C40.1383 18.9445 40.0464 18.8662 39.9553 18.7838C39.8514 18.6916 39.7474 18.5987 39.6406 18.5097C39.5479 18.4314 39.4529 18.3565 39.3587 18.2814C39.251 18.194 39.1417 18.1085 39.0309 18.0251C38.9339 17.9524 38.836 17.8809 38.7372 17.8107C38.6255 17.7296 38.5126 17.6504 38.3984 17.5729C38.298 17.5055 38.1967 17.4395 38.0945 17.3748C37.9791 17.3001 37.8624 17.2274 37.7447 17.1565C37.6412 17.0943 37.537 17.0334 37.4321 16.9737C37.3126 16.9054 37.1922 16.8387 37.0709 16.7737C36.9635 16.7201 36.8564 16.6617 36.7491 16.608C36.6258 16.5457 36.5014 16.4858 36.3739 16.4269C36.2658 16.3754 36.1569 16.3257 36.0472 16.2776C35.9202 16.2213 35.7919 16.1706 35.6639 16.1169C35.5538 16.0716 35.4432 16.0276 35.332 15.9849C35.2014 15.9355 35.0701 15.8882 34.938 15.843C34.8264 15.8033 34.7144 15.765 34.6018 15.7281C34.4678 15.6847 34.3337 15.6451 34.1961 15.6053C34.0846 15.5726 33.9725 15.5394 33.8596 15.5095C33.8165 15.4978 33.7725 15.4886 33.729 15.4773C35.316 17.0184 36.4937 18.9307 37.1557 21.0415C38.4297 20.7059 39.6631 20.2314 40.8336 19.6265ZM15 29.4768H21.4286C21.453 26.9667 21.8171 24.4715 22.5109 22.0591C21.0957 21.6812 19.73 21.1378 18.4421 20.4399C16.3273 22.9888 15.1168 26.1668 15 29.4768ZM29.4638 44.9828V38.0707C27.5893 38.0971 25.7226 38.3169 23.8932 38.7265C25.1584 42.2626 27.1698 44.6569 29.4638 44.9829V44.9828ZM29.4638 30.5491H22.5009C22.5281 32.9705 22.8832 35.3771 23.5565 37.7031C25.4953 37.2607 27.4754 37.0245 29.4638 36.9984V30.5491ZM29.4638 15.043C27.1698 15.369 25.1584 17.7633 23.8932 21.2994C25.7225 21.7092 27.5893 21.929 29.4638 21.9551V15.043ZM29.4638 23.0275C27.4754 23.0013 25.4953 22.7651 23.5565 22.3229C22.8832 24.649 22.5281 27.0554 22.5009 29.4768H29.4638V23.0275ZM26.2668 15.4769C26.2234 15.488 26.1799 15.4972 26.1365 15.5085C26.0229 15.5388 25.9108 15.5726 25.7977 15.6053C25.6631 15.6446 25.5296 15.6841 25.3946 15.727C25.2806 15.764 25.1686 15.8032 25.0566 15.8423C24.9254 15.8886 24.794 15.9347 24.6641 15.9839C24.5521 16.0268 24.4416 16.0713 24.3306 16.1169C24.2031 16.1705 24.0754 16.2242 23.9494 16.2776C23.839 16.3261 23.7298 16.3768 23.6204 16.4279C23.4964 16.486 23.3733 16.5459 23.251 16.6075C23.0215 16.7237 22.7949 16.8456 22.5716 16.9732C22.4651 17.0327 22.3596 17.0941 22.2554 17.1575C22.1389 17.2277 22.0237 17.3002 21.909 17.372C21.8058 17.4379 21.7035 17.5044 21.6022 17.573C21.4893 17.6497 21.3774 17.728 21.2666 17.8078C21.1672 17.8787 21.0683 17.9502 20.9699 18.0224C20.8602 18.1049 20.7555 18.1908 20.645 18.2765C20.5498 18.3526 20.4537 18.4282 20.3605 18.507C20.2532 18.5955 20.1514 18.6871 20.0479 18.7788C19.9563 18.8605 19.8639 18.9398 19.7743 19.0244C19.6725 19.1194 19.5733 19.2181 19.4738 19.316C19.3874 19.4014 19.2994 19.4856 19.2146 19.5733C19.1992 19.5896 19.1843 19.6074 19.168 19.6239C20.3372 20.2281 21.5692 20.7022 22.8418 21.0378C23.5035 18.9283 24.6807 17.0171 26.2668 15.4769ZM19.4715 40.7059C19.5712 40.8041 19.6704 40.9033 19.7728 40.9988C19.8618 41.0813 19.9534 41.1596 20.0447 41.2421C20.1487 41.3345 20.2526 41.4271 20.3595 41.5162C20.4522 41.594 20.5467 41.669 20.6414 41.7444C20.7487 41.8313 20.8558 41.9177 20.9694 42.0013C21.0661 42.0738 21.1642 42.1439 21.2624 42.216C21.3744 42.2963 21.4875 42.3767 21.6017 42.4539C21.7021 42.5213 21.8035 42.5875 21.9056 42.6523C22.0215 42.7267 22.1373 42.7998 22.2554 42.8704C22.3588 42.9327 22.4632 42.9937 22.568 43.0534C22.6874 43.1217 22.8078 43.1883 22.9292 43.2531C23.0363 43.3068 23.1437 43.3652 23.251 43.4189C23.3743 43.4812 23.4987 43.5411 23.6261 43.6003C23.7334 43.6508 23.8423 43.7006 23.9528 43.7493C24.0798 43.8056 24.2079 43.8563 24.3361 43.91C24.4466 43.955 24.5566 43.9995 24.6681 44.042C24.7982 44.092 24.9301 44.1385 25.0621 44.184C25.1736 44.2231 25.2851 44.2624 25.3982 44.2988C25.5322 44.3422 25.6663 44.382 25.804 44.4216C25.9155 44.4543 26.0276 44.4875 26.1402 44.5176C26.1836 44.5294 26.2275 44.5386 26.271 44.5498C24.6841 43.0086 23.5063 41.0961 22.8443 38.9854C21.5717 39.3211 20.3398 39.7955 19.1706 40.3999C19.1864 40.4158 19.2013 40.4331 19.217 40.4496C19.2974 40.5365 19.384 40.6208 19.4715 40.7059ZM18.4421 39.5859C19.7301 38.8883 21.0957 38.3448 22.5109 37.9667C21.8171 35.5543 21.453 33.0591 21.4286 30.549H15C15.117 33.859 16.3274 37.0369 18.4421 39.5859Z" fill="#CC2027"/>
</g>
<defs>
<clipPath id="clip0_1_13555">
<rect width="30" height="30" fill="white" transform="translate(15 15)"/>
</clipPath>
</defs>
</svg>
